<svg height="600" version="1.1" width="800" xmlns="http://www.w3.org/2000/svg" preserveAspectRatio="xMidYMid meet" viewBox="0 0 600 442" xmlns:xlink="http://www.w3.org/1999/xlink"><desc>Created with Snap</desc><defs/><g id="root" contentwidth="480" contentheight="130.9402427245622">
          <rect class="background" x="60px" y="160px" width="480px" height="120px" style="" fill="#001529"/>
          <g class="content" id="content" transform="matrix(0.8063,0,0,0.8063,88.7238,230.5948)">
            <g class="icon" style="mask: url(#mask);">
            <svg height="162.4" version="1.1" width="595.325" xmlns="http://www.w3.org/2000/svg" x="-35.625" y="-93.1"><desc>Created with Snap</desc><defs/><svg xmlns:xlink="http://www.w3.org/1999/xlink" version="1.1" xmlns="http://www.w3.org/2000/svg" viewBox="0 0 595.325 162.4"><defs/><g><path fill="#001529" stroke="none" class="nameBg" paint-order="stroke fill markers" d=" M 28.5 20.5 L 566.825 20.5 L 590.825 103.1 L 4.5 103.1" style=""/><path fill="#001529" stroke="none" class="sloganBg" paint-order="stroke fill markers" d=" M 4.5 105.1 L 590.825 105.1 L 566.825 133.9 L 28.5 133.9" style=""/><path fill="none" stroke="#001529" paint-order="fill stroke markers" d=" M 33.3 125.5 L 233.31250000000003 125.5 M 28.5 119.1 L 228.51250000000002 119.1 M 23.7 112.69999999999999 L 223.71250000000003 112.69999999999999 M 562.0250000000001 125.5 L 362.01250000000005 125.5 M 566.825 119.1 L 366.81250000000006 119.1 M 571.625 112.69999999999999 L 371.61250000000007 112.69999999999999" stroke-miterlimit="10" stroke-width="2" style=""/></g><desc>Created with Snap</desc></svg></svg></g>
            <g id="icon_name_and_slogan_gap">
            </g>
            <g class="name_and_slogan" id="name_and_slogan_id">
              <g class="name"><g id="nameDefaultGroup"><path d="M25.8 -22.5Q25.4 -22.5 25.1 -23L25.1 -23Q24.6 -23.8 24.6 -24.6L24.6 -24.6Q24.3 -25.5 23.5 -26.8L23.5 -26.8Q22.4 -28.9 19.8 -30.1L19.8 -30.1Q17.9 -31 14.3 -31.2L14.3 -31.2Q12.2 -31.4 10.7 -30.4Q9.1 -29.4 9.1 -27.9L9.1 -27.9Q9.1 -26.8 9.9 -25.8L9.9 -25.8Q10.7 -24.8 13 -23.8L13 -23.8Q13.5 -23.6 15.5 -22.8L15.5 -22.8L18.2 -21.7Q21 -20.7 20.8 -20.8L20.8 -20.8L22.6 -20.1Q24.2 -19.5 25.9 -18.4Q27.6 -17.2 28.6 -15.6L28.6 -15.6Q29.8 -13.7 29.8 -11L29.8 -11Q29.8 -8.6 28.7 -6.4L28.7 -6.4Q27.1 -3.2 24 -1.5Q20.9 0.1 17 0L17 0Q13.2 0.1 10.6 -0.9L10.6 -0.9Q8.6 -1.7 7.4 -2.7L7.4 -2.7Q6 -3.7 5.4 -3.7L5.4 -3.7Q4.9 -3.5 4.7 -2.8Q4.5 -2.2 4.5 -2L4.5 -2Q4.2 -0.9 3.7 -0.2L3.7 -0.2Q3.3 0.3 2.9 0.3L2.9 0.3Q2.3 0.3 2.1 -0.3Q1.8 -0.9 1.9 -2.1L1.9 -2.1L1.9 -10.5Q1.9 -11.2 2.2 -11.8Q2.4 -12.3 3 -12.3L3 -12.3Q3.4 -12.3 4 -11.6L4 -11.6L4.7 -9.9Q5 -9.2 5.8 -8.1Q6.7 -6.9 7.6 -6L7.6 -6Q9.3 -4.7 11.6 -3.7Q13.8 -2.8 15.8 -3L15.8 -3Q17.6 -3 18.6 -3.5L18.6 -3.5Q19.8 -4 20.8 -5.2Q21.8 -6.4 21.7 -7.6L21.7 -7.6Q21.7 -8.7 20.7 -9.9L20.7 -9.9Q19.8 -11 16.5 -12.4L16.5 -12.4L12 -14.3Q10.2 -15 8.7 -15.8Q7.2 -16.5 5.7 -17.4L5.7 -17.4Q4.1 -18.4 3.2 -20.2Q2.4 -22 2.4 -24L2.4 -24Q2.4 -26.4 3.3 -28.3L3.3 -28.3Q6.3 -34.3 15.8 -33.9L15.8 -33.9Q16.7 -33.9 18.7 -33.2Q20.7 -32.5 21.2 -32.3L21.2 -32.3Q23.3 -31.5 23.5 -31.5L23.5 -31.5Q24 -31.5 24.4 -32.3L24.4 -32.3L25.1 -33.4Q25.5 -34.1 25.9 -34.1L25.9 -34.1Q26.4 -34.1 26.6 -33.6Q26.9 -33 26.9 -32L26.9 -32L26.9 -24.5Q26.9 -23.6 26.6 -23Q26.3 -22.5 25.8 -22.5L25.8 -22.5M58 -22.5Q57.6 -22.5 57.2 -23L57.2 -23Q56.8 -23.8 56.7 -24.6L56.7 -24.6Q56.5 -25.5 55.7 -26.8L55.7 -26.8Q54.6 -28.9 52 -30.1L52 -30.1Q50.1 -31 46.5 -31.2L46.5 -31.2Q44.4 -31.4 42.9 -30.4Q41.3 -29.4 41.3 -27.9L41.3 -27.9Q41.3 -26.8 42.1 -25.8L42.1 -25.8Q42.9 -24.8 45.1 -23.8L45.1 -23.8Q45.7 -23.6 47.7 -22.8L47.7 -22.8L50.4 -21.7Q53.2 -20.7 53 -20.8L53 -20.8L54.8 -20.1Q56.4 -19.5 58.1 -18.4Q59.8 -17.2 60.8 -15.6L60.8 -15.6Q62 -13.7 62 -11L62 -11Q62 -8.6 60.9 -6.4L60.9 -6.4Q59.3 -3.2 56.2 -1.5Q53.1 0.1 49.2 0L49.2 0Q45.4 0.1 42.8 -0.9L42.8 -0.9Q40.8 -1.7 39.6 -2.7L39.6 -2.7Q38.2 -3.7 37.6 -3.7L37.6 -3.7Q37.1 -3.5 36.9 -2.8Q36.7 -2.2 36.6 -2L36.6 -2Q36.4 -0.9 35.9 -0.2L35.9 -0.2Q35.5 0.3 35.1 0.3L35.1 0.3Q34.5 0.3 34.2 -0.3Q34 -0.9 34.1 -2.1L34.1 -2.1L34.1 -10.5Q34.1 -11.2 34.3 -11.8Q34.6 -12.3 35.1 -12.3L35.1 -12.3Q35.6 -12.3 36.2 -11.6L36.2 -11.6L36.9 -9.9Q37.2 -9.2 38 -8.1Q38.9 -6.9 39.8 -6L39.8 -6Q41.5 -4.7 43.7 -3.7Q46 -2.8 48 -3L48 -3Q49.8 -3 50.8 -3.5L50.8 -3.5Q52 -4 53 -5.2Q54 -6.4 53.9 -7.6L53.9 -7.6Q53.9 -8.7 52.9 -9.9L52.9 -9.9Q52 -11 48.7 -12.4L48.7 -12.4L44.1 -14.3Q42.4 -15 40.9 -15.8Q39.4 -16.5 37.9 -17.4L37.9 -17.4Q36.3 -18.4 35.4 -20.2Q34.6 -22 34.6 -24L34.6 -24Q34.6 -26.4 35.5 -28.3L35.5 -28.3Q38.4 -34.3 48 -33.9L48 -33.9Q48.9 -33.9 50.9 -33.2Q52.8 -32.5 53.4 -32.3L53.4 -32.3Q55.5 -31.5 55.7 -31.5L55.7 -31.5Q56.2 -31.5 56.6 -32.3L56.6 -32.3L57.2 -33.4Q57.7 -34.1 58.1 -34.1L58.1 -34.1Q58.5 -34.1 58.8 -33.6Q59.1 -33 59.1 -32L59.1 -32L59.1 -24.5Q59.1 -23.6 58.8 -23Q58.5 -22.5 58 -22.5L58 -22.5M67.9 -25.1Q68.8 -27.4 70.9 -29.5Q73 -31.5 75.6 -32.7Q78.3 -33.8 80.7 -33.8L80.7 -33.8Q83.1 -33.8 85.3 -33Q87.6 -32.3 90.3 -30L90.3 -30Q92.1 -28.5 93.3 -26.2Q94.5 -23.8 95 -21.4L95 -21.4Q95.5 -19.7 95.5 -16.8L95.5 -16.8Q95.6 -14 95.3 -12.1L95.3 -12.1Q94.1 -6.8 90.6 -3.5L90.6 -3.5Q88.7 -1.7 86.2 -0.7Q83.7 0.2 81.4 0.2L81.4 0.2Q78.3 0.2 75.6 -0.8Q72.9 -1.8 70.5 -4L70.5 -4Q68 -6.3 67.1 -9.6Q66.2 -12.9 66.2 -16.8L66.2 -16.8Q66.2 -21.3 67.9 -25.1L67.9 -25.1M76 -12Q76 -9.1 76.7 -6.7L76.7 -6.7Q77.3 -4.7 78.3 -3.8L78.3 -3.8Q79.3 -3 80.9 -3L80.9 -3Q82.7 -3 84 -4.2L84 -4.2Q85.3 -5.5 85.6 -8.2Q85.9 -11 85.9 -16.1L85.9 -16.1L85.8 -20.2Q85.7 -21.4 85.7 -23.2L85.7 -23.2L85.5 -25.1Q85.2 -27.3 84.1 -28.9Q82.9 -30.5 80.9 -30.5L80.9 -30.5Q78.8 -30.5 77.3 -28.4L77.3 -28.4Q76.8 -27.6 76.5 -26.2L76.5 -26.2Q76.2 -24.8 76 -21.7L76 -21.7L75.9 -17.1Q75.8 -16.1 76 -12L76 -12M127.6 -48L149.3 -55.3L149.5 -55.3Q149.8 -55.3 150.8 -54.7L150.8 -54.7Q151.6 -54.1 152.7 -53.2Q153.9 -52.3 155.1 -51.2L155.1 -51.2Q156.3 -50 157.5 -49Q158.7 -48 159.6 -47L159.6 -47Q160.6 -46.1 160.8 -45.6L160.8 -45.6Q160.8 -45.4 159.6 -45.1L159.6 -45.1Q158.3 -44.8 156.3 -44.6Q154.3 -44.4 152 -44.1L152 -44.1L143.7 -43.6Q142.9 -43.5 142.4 -43.5Q141.8 -43.4 141.6 -43.4L141.6 -43.4L139.8 -43.3Q139.5 -43.2 139.2 -43.2Q139 -43.2 138.7 -43.2L138.7 -43.2Q138.3 -43.1 138 -43.1L138 -43.1L135.4 -43.1L131.9 -43Q130.8 -42.9 129.7 -42.9Q128.7 -42.8 128.4 -42.8L128.4 -42.8L125.6 -42.8Q125.3 -42.8 125 -42.8Q124.7 -42.8 124.3 -42.8L124.3 -42.8L123 -42.8Q122.6 -42.7 122.5 -42.7Q122.3 -42.7 122.3 -42.7L122.3 -42.7L120.7 -42.7L120.4 -34.8L120.7 -34.6L122 -34.6Q124.7 -34.6 127.4 -34.6Q130.2 -34.7 132.9 -34.8L132.9 -34.8L143.7 -35.3L148.2 -35.3Q150.8 -35.3 152.8 -36.1L152.8 -36.1Q153.5 -36.4 154.2 -37L154.2 -37L155.2 -38.1L156.3 -38.9L157.2 -38.7Q157.5 -38.7 157.9 -38.6Q158.2 -38.4 158.4 -38.3L158.4 -38.3Q159.1 -37.7 159.4 -37.4Q159.8 -37.1 160.5 -36.4L160.5 -36.4L163 -33.5Q163.3 -33.1 163.4 -32.9Q163.6 -32.6 163.7 -32.5L163.7 -32.5L164 -32L164 -31.8Q164 -31.4 163.7 -31.2Q163.4 -31.1 162.9 -31L162.9 -31Q162.4 -30.9 162.1 -31L162.1 -31L161.4 -31Q160.8 -31 158.6 -31Q156.4 -31 153.9 -30.9L153.9 -30.9L146.4 -30.7L143.4 -30.7Q140.6 -30.6 137.8 -30.5Q134.9 -30.4 132 -30.2L132 -30.2Q126.4 -29.7 120.7 -30L120.7 -30L120.4 -29.7Q120.3 -29.4 120.3 -29.1Q120.3 -28.7 120.3 -28.4L120.3 -28.4Q120.2 -27.8 120.2 -27.2Q120.2 -26.6 120.2 -26.2L120.2 -26.2L119.3 -19.4L119.3 -19.1Q118.7 -15.6 117.8 -12.8Q116.9 -10.1 115.4 -7.7L115.4 -7.7Q114 -5.3 112 -3.1Q110 -0.9 107.3 1.6L107.3 1.6Q106.1 2.6 104.7 3.7Q103.3 4.8 101.9 5.4L101.9 5.4L101.6 5.4Q101.2 5 101.2 4.8Q101.1 4.5 101.1 4.1L101.1 4.1L101.1 3.6Q102.7 0.8 104.3 -2.4Q105.9 -5.7 106.5 -9L106.5 -9Q106.6 -9.6 106.8 -11.1Q107.1 -12.6 107.4 -14.3L107.4 -14.3Q107.6 -15.1 107.7 -15.9Q107.9 -16.7 108 -17.5L108 -17.5Q108.1 -17.9 108.2 -18.9Q108.4 -20 108.5 -21.2Q108.6 -22.3 108.8 -23.3Q108.9 -24.3 108.9 -24.6L108.9 -24.6Q108.9 -24.8 108.9 -25.3Q108.9 -25.7 109 -26.2L109 -26.2Q109.1 -26.7 109.1 -27.1Q109.2 -27.5 109.2 -27.7L109.2 -27.7L109.2 -35.6Q109.2 -37.4 109.1 -39.1Q109.1 -40.9 109 -42.7L109 -42.7Q108.9 -44.4 108.9 -46.1Q108.9 -47.9 108.9 -49.8L108.9 -49.8Q108.9 -49.9 109.2 -50.3Q109.6 -50.8 109.9 -50.8L109.9 -50.8L110.2 -50.8Q110.3 -50.8 110.9 -50.5L110.9 -50.5Q111.4 -50.3 111.6 -50.3L111.6 -50.3Q111.7 -50.2 111.7 -50.1Q111.8 -50 112.1 -49.9L112.1 -49.9Q112.6 -49.8 113.2 -49.5Q113.8 -49.2 114.3 -49L114.3 -49L114.8 -48.7L116.6 -48L117.8 -47.5Q118.4 -47.3 118.5 -47.2Q118.7 -47.1 119.2 -46.5L119.2 -46.5Q119.7 -45.9 119.9 -45.9L119.9 -45.9L120.2 -45.9L127.6 -48M146.2 -22.1Q146.6 -22.4 147 -23.1Q147.3 -23.8 147.7 -24.6L147.7 -24.6Q148 -25.3 148.4 -25.8Q148.8 -26.4 149.3 -26.5L149.3 -26.5Q149.5 -26.5 150.1 -26.2Q150.7 -25.8 150.9 -25.7L150.9 -25.7L152.4 -24.8L154.4 -23.5Q155.4 -22.9 156.4 -22.4Q157.3 -21.8 157.7 -21.6L157.7 -21.6Q157.8 -21.5 157.8 -21.5Q157.9 -21.4 158.1 -21.3L158.1 -21.3Q158.3 -21.2 158.5 -21Q158.7 -20.9 158.9 -20.7L158.9 -20.7Q159.3 -20.4 159.6 -20.2Q159.9 -19.9 160.1 -19.9L160.1 -19.9Q160.5 -20 161.1 -19.5Q161.6 -18.9 161.6 -18.6L161.6 -18.6Q161.6 -18.1 161.1 -17.7Q160.5 -17.4 159.9 -17.1L159.9 -17.1Q159.1 -16.8 158.7 -16.7L158.7 -16.7Q158.1 -16.5 158.1 -16.3L158.1 -16.3L158.1 1.3Q158.1 2.1 156.8 2.7Q155.4 3.4 153.6 3.9L153.6 3.9Q151.9 4.4 150.3 4.6Q148.6 4.9 148 4.9L148 4.9L146.9 4.9Q146.2 4.5 146.2 3.6L146.2 3.6L146.2 -0.1L145.9 -0.4L142.6 -0.4Q140 -0.4 137.7 -0.3Q135.4 -0.3 133 -0.1L133 -0.1L133 1.9Q133 2 132.9 2.5Q132.8 3 132.4 3.1L132.4 3.1Q130 4.1 127.2 4.8Q124.3 5.4 121.5 5.4L121.5 5.4Q120.9 5.4 120.7 5.2L120.7 5.2L120.7 0.8Q120.7 0.6 120.7 0.5Q120.7 0.4 120.7 0L120.7 0Q120.7 -0.1 120.7 -0.5Q120.7 -0.8 120.8 -1.2L120.8 -1.2Q120.8 -1.5 120.8 -1.8Q120.8 -2 120.9 -2.4L120.9 -2.4L120.9 -25.2Q120.9 -25.7 121.2 -25.9L121.2 -25.9Q122.6 -25.6 124.1 -24.9Q125.6 -24.3 127.2 -23.6L127.2 -23.6Q128.7 -22.8 130.2 -22.4Q131.7 -21.9 133 -21.9L133 -21.9Q134.6 -21.9 136.3 -21.9Q137.9 -22 139.5 -22L139.5 -22Q141.2 -22 142.8 -22.1Q144.5 -22.1 146.2 -22.1L146.2 -22.1M133 -17.1Q132.8 -14.1 132.7 -10.9Q132.7 -7.6 132.7 -5L132.7 -5L136.4 -5Q136.6 -5 136.9 -5Q137.2 -5 137.8 -5L137.8 -5Q138.4 -5 138.9 -5Q139.5 -5 140.1 -5.1L140.1 -5.1L145 -5.1L145.7 -5.3L146.2 -5.4L146.2 -17.6Q142.8 -17.6 139.6 -17.5Q136.3 -17.4 133 -17.1L133 -17.1M197.6 -54.8Q197.7 -55 198.1 -55.3Q198.4 -55.6 198.6 -55.6L198.6 -55.6Q198.8 -55.6 200.1 -55.2L200.1 -55.2L205.7 -52.6Q207.3 -51.8 208.6 -50.9Q210 -50.1 210.8 -49.4L210.8 -49.4Q211.8 -48.7 211.8 -48.2L211.8 -48.2Q211.8 -48 211.2 -47.4L211.2 -47.4Q206.9 -44.5 202.6 -41.7Q198.4 -38.8 194 -36.1L194 -36.1L194 -35.8L217.1 -35.8L217.1 -36.4Q216.5 -36.9 216.2 -37.6L216.2 -37.6Q215.4 -38.7 214.8 -39.7Q214.1 -40.6 213.4 -41.4L213.4 -41.4Q213 -41.8 212.7 -42.3Q212.3 -42.7 212 -43.1L212 -43.1Q212.4 -43.7 212.7 -43.8Q213 -43.9 213.6 -43.9L213.6 -43.9Q215.2 -43.9 217.2 -43.3L217.2 -43.3Q218.2 -42.9 218.9 -42.6Q219.7 -42.3 220.3 -42.2L220.3 -42.2Q221.5 -41.8 223.6 -41Q225.6 -40.2 227.7 -39.2L227.7 -39.2Q229.8 -38.2 231.5 -36.9Q233.3 -35.6 233.9 -34.3L233.9 -34.3Q234.1 -33.8 234.2 -33.1Q234.2 -32.4 234.2 -31.8L234.2 -31.8Q234.2 -30.4 233.6 -29.4Q233 -28.4 232.1 -27.4L232.1 -27.4L230.2 -25.7Q229.7 -25.3 229.3 -24.8Q229 -24.3 228.6 -23.7L228.6 -23.7L228.6 -23.4Q228.2 -23.4 227.6 -23.5Q227 -23.5 226.4 -23.7L226.4 -23.7Q225.8 -23.8 225.3 -24Q224.8 -24.3 224.6 -24.7L224.6 -24.7L221.1 -30.7Q221 -30.8 220.9 -30.8Q220.8 -30.8 220.8 -30.9L220.8 -30.9Q220.3 -31 220.3 -31L220.3 -31Q220.2 -31 219.5 -30.9L219.5 -30.9L219 -30.7L218.7 -30.7Q218.4 -30.7 217.4 -30.6Q216.4 -30.5 215.2 -30.2L215.2 -30.2Q214 -30 213 -29.9Q212 -29.7 211.8 -29.7L211.8 -29.7Q210.3 -29.5 208.7 -29.3Q207 -29.2 205.1 -28.9L205.1 -28.9Q201.2 -28.6 197.4 -28Q193.5 -27.5 189.9 -26.7L189.9 -26.7Q188.1 -26.4 186.5 -25.9Q184.9 -25.5 183.6 -24.9L183.6 -24.9L184.4 -24.7L184.7 -24.7Q184.8 -24.6 185.5 -24.4Q186.1 -24.2 186.8 -24L186.8 -24Q187.6 -23.9 188.2 -23.7Q188.8 -23.5 189 -23.4L189 -23.4L191.5 -23Q193.1 -22.6 194 -21.9L194 -21.9L201.3 -21.9Q205 -21.9 208.1 -21.9Q211.2 -22 214.9 -22.1L214.9 -22.1Q215.6 -22.3 216 -23Q216.4 -23.6 216.8 -24.3L216.8 -24.3Q217.2 -25 217.6 -25.5Q218 -26 218.7 -26L218.7 -26L219 -26Q219.4 -25.8 220.8 -25.2Q222.1 -24.6 223.6 -23.9L223.6 -23.9Q225 -23.1 226.3 -22.5Q227.6 -21.9 228 -21.6L228 -21.6Q228.5 -21.3 229.1 -21Q229.8 -20.7 230.3 -20.2Q230.8 -19.8 231.2 -19.3Q231.6 -18.8 231.6 -18.1L231.6 -18.1Q231.6 -17.4 231.1 -17.2Q230.6 -17 230 -16.9L230 -16.9Q229.5 -16.8 228.9 -16.6Q228.4 -16.3 228.3 -15.8L228.3 -15.8Q228 -11.4 227.9 -6.9Q227.8 -2.4 227.8 1.8L227.8 1.8Q227.2 2.6 225.8 3.2Q224.5 3.7 222.8 4.1L222.8 4.1Q221.2 4.5 219.7 4.7Q218.3 4.9 217.7 4.9L217.7 4.9L216.3 4.9L216 4.6Q215.9 4 215.7 3.4Q215.6 2.8 215.7 2.2L215.7 2.2Q215.8 1.5 215.8 0.9Q215.8 0.2 215.8 -0.4L215.8 -0.4L200.5 -0.4Q199.9 -0.4 198.9 -0.3Q197.9 -0.3 197.1 -0.2L197.1 -0.2L194.8 -0.1L194.8 2.4Q194.8 2.9 193.3 3.3L193.3 3.3Q191.8 3.9 189.9 4.3Q188 4.8 186.1 5L186.1 5Q185.3 5.2 184.7 5.3Q184.2 5.4 183.9 5.4L183.9 5.4L182.8 5.4Q182.2 5.2 182.2 4.4L182.2 4.4L182.2 3.3Q182.2 1.2 182.3 -1Q182.3 -3.2 182.4 -5.4L182.4 -5.4Q182.4 -7.7 182.5 -9.9Q182.5 -12.1 182.5 -14.3L182.5 -14.3L182.5 -24.4Q182.3 -24.8 181.8 -25.2L181.8 -25.2L180.9 -26Q179.5 -27.6 178.5 -30Q177.5 -32.3 176.9 -34.3L176.9 -34.3L176.9 -34.6Q176.9 -34.9 177.8 -35.5L177.8 -35.5Q178.8 -35.9 180.1 -36.2Q181.3 -36.6 182.4 -36.9L182.4 -36.9Q183.5 -37.2 183.9 -37.4L183.9 -37.4Q186.1 -38.8 188.2 -40.8Q190.2 -42.8 192 -45.1L192 -45.1Q193.8 -47.4 195.2 -49.9Q196.6 -52.4 197.6 -54.8L197.6 -54.8M194.8 -15.6L194.8 -5L202 -5Q202.2 -5 202.5 -5Q202.8 -5 203.3 -5L203.3 -5Q203.7 -5 204.2 -5Q204.7 -5 205.3 -5.1L205.3 -5.1Q205.8 -5.1 206.4 -5.1Q206.9 -5.1 207.4 -5.2L207.4 -5.2L211.8 -5.2Q212.1 -5.2 212.8 -5.2Q213.4 -5.3 214 -5.3L214 -5.3L215.5 -5.4L215.8 -5.7Q215.8 -6.4 215.8 -7.1Q215.8 -7.8 215.9 -8.5L215.9 -8.5Q215.9 -9.6 216 -10.9Q216 -12.1 216 -13L216 -13L216 -17.1L215.9 -17.6Q215.8 -17.6 215.8 -17.9L215.8 -17.9L214.2 -17.9L212.3 -17.7Q211.8 -17.6 211.3 -17.6Q210.8 -17.6 210.5 -17.6L210.5 -17.6Q210 -17.6 209.7 -17.6Q209.4 -17.6 209.3 -17.6L209.3 -17.6Q207.8 -17.5 206.3 -17.5Q204.8 -17.4 203.3 -17.5L203.3 -17.5Q201.8 -17.6 200.3 -17.5Q198.8 -17.5 197.3 -17.4L197.3 -17.4Q197.1 -17.4 196.7 -17.3Q196.3 -17.3 196 -17.2L196 -17.2L195.1 -17.1L194.8 -15.6M254.8 -49.5Q254.9 -49.8 255.2 -50.5Q255.5 -51.3 255.8 -52.1L255.8 -52.1Q256 -52.4 256.1 -52.8Q256.2 -53.1 256.3 -53.5L256.3 -53.5L256.7 -54.6Q256.7 -54.6 256.8 -55.1L256.8 -55.1Q257 -55.5 257 -55.6L257 -55.6L257.5 -55.6L258 -55.4Q258.3 -55.4 258.6 -55.4L258.6 -55.4L260.4 -54.7Q261.3 -54.4 262.9 -53.9L262.9 -53.9Q263.5 -53.6 264.2 -53.4Q264.9 -53.1 265.5 -52.9L265.5 -52.9L267.2 -52.3Q268.2 -52.1 268.2 -51.3L268.2 -51.3Q268.2 -50.8 267.8 -50.5Q267.5 -50.2 267 -49.9L267 -49.9Q266.5 -49.6 266.2 -49.2Q265.8 -48.9 265.8 -48.5L265.8 -48.5L268.6 -48.6Q269.4 -48.7 270.1 -48.7Q270.9 -48.7 271.2 -48.7L271.2 -48.7Q272.1 -48.7 273.4 -49.1L273.4 -49.1Q274.5 -49.5 275.5 -49.5L275.5 -49.5Q276.1 -49.5 276.7 -49.1Q277.2 -48.6 277.7 -47.9L277.7 -47.9L278.6 -46.5Q279.1 -45.8 279.4 -45.5L279.4 -45.5Q279.9 -45.6 280.2 -46.1Q280.5 -46.5 280.7 -47L280.7 -47Q280.9 -47.3 280.9 -47.5Q281 -47.7 281.1 -48L281.1 -48Q281.2 -48.2 281.2 -48.4Q281.3 -48.6 281.4 -48.7L281.4 -48.7Q281.7 -49.2 282 -50L282 -50Q282.1 -50.4 282.2 -50.8Q282.4 -51.3 282.5 -51.7L282.5 -51.7L283.2 -53.4Q283.3 -53.8 283.4 -54Q283.5 -54.1 283.5 -54.3L283.5 -54.3Q283.5 -54.4 283.6 -54.9L283.6 -54.9Q283.7 -55.2 283.7 -55.3Q283.8 -55.4 283.8 -55.6L283.8 -55.6L284.3 -55.6Q285.1 -55.6 287 -55.2Q288.9 -54.9 290.7 -54.3L290.7 -54.3Q291.7 -54 292.5 -53.7Q293.3 -53.4 294.1 -53.1L294.1 -53.1Q295.6 -52.4 295.6 -51.8L295.6 -51.8Q295.6 -51.4 295.2 -51.1Q294.9 -50.8 294.6 -50.4L294.6 -50.4Q294 -50.1 293.6 -49.8Q293.2 -49.5 292.9 -49.5L292.9 -49.5L292.9 -49.2L296.4 -49.2L297.9 -49.4Q298.3 -49.5 298.7 -49.5Q299.1 -49.5 299.3 -49.5L299.3 -49.5Q299.9 -50.1 300.9 -51Q302 -52 302.8 -52.6L302.8 -52.6Q303 -52.6 303.7 -52.2Q304.3 -51.8 305.1 -51.2L305.1 -51.2Q305.7 -50.6 306.3 -50Q306.9 -49.5 307.1 -49.2L307.1 -49.2Q307.2 -49 307.6 -48.7L307.6 -48.7L309 -47Q309.3 -46.7 309.5 -46.4L309.5 -46.4L309.5 -45.9Q309.5 -45.7 309.4 -45.6Q309.3 -45.5 309 -45.5L309 -45.5Q304.6 -45.5 300.5 -45.3Q296.4 -45.1 292.1 -45L292.1 -45Q293 -44.8 294.1 -44.5Q295.2 -44.3 296.1 -43.8L296.1 -43.8Q297.1 -43.3 297.6 -42.6Q298.2 -41.8 298.2 -40.6L298.2 -40.6Q298.2 -39 296.5 -37.4L296.5 -37.4Q295.7 -36.7 294.8 -36.3Q294 -35.9 293.2 -35.9L293.2 -35.9Q292.2 -35.9 291.6 -36.3Q291.1 -36.8 290.9 -37.5L290.9 -37.5Q290.7 -37.9 290.7 -38.3Q290.7 -38.7 290.6 -39L290.6 -39Q290.4 -40.5 289.3 -42L289.3 -42Q288.8 -42.7 288 -43.1L288 -43.1Q288 -44.1 288.9 -44.4L288.9 -44.4L288.6 -44.4Q288.1 -44.4 287 -44Q286 -43.6 284.8 -43L284.8 -43Q283.5 -42.4 282.6 -41.8Q281.6 -41.1 281.4 -40.9L281.4 -40.9Q281.5 -40.7 281.7 -40.5Q282 -40.4 282.2 -40.2L282.2 -40.2Q283.4 -39.7 284.2 -39.1L284.2 -39.1Q284.6 -38.7 284.6 -38.1L284.6 -38.1Q284.6 -37.9 284.3 -37.4Q284 -36.9 283.7 -36.5L283.7 -36.5Q283.3 -36.1 283 -35.6Q282.6 -35.2 282.4 -35.1L282.4 -35.1L292.6 -35.1Q292.8 -35.1 293.2 -35.1L293.2 -35.1Q293.5 -35.1 293.7 -35.1Q293.9 -35.1 294.3 -35.2L294.3 -35.2Q294.6 -35.3 294.8 -35.3Q295.1 -35.3 295.3 -35.3L295.3 -35.3L296.5 -35.3Q296.6 -35.1 297.1 -35.6L297.1 -35.6Q297.3 -35.9 297.6 -36.1L297.6 -36.1L298.9 -37.8Q299.1 -37.9 299.2 -38.1Q299.2 -38.2 299.3 -38.4L299.3 -38.4Q299.7 -38.8 299.8 -39L299.8 -39Q299.9 -39.2 300.4 -39.2L300.4 -39.2Q300.7 -39.2 301 -38.9L301 -38.9Q301.3 -38.6 301.8 -38.4L301.8 -38.4L304 -36.6L305.4 -35.4L306.3 -34.8L307.1 -34.1L309.5 -31.8Q309.8 -31.5 310.3 -31.1Q310.8 -30.7 310.8 -30.5L310.8 -30.5Q310.8 -29.6 310.8 -29.4L310.8 -29.4Q310.6 -29.1 310.5 -29.1Q310.3 -29 310 -29L310 -29Q309.5 -29 309.2 -28.8L309.2 -28.8Q306.1 -28.8 303 -28.2Q300 -27.6 297.4 -26L297.4 -26L297.4 -25.7Q297.6 -25.4 297.8 -25.2Q298 -25 298.2 -24.8L298.2 -24.8Q298.5 -24.3 298.5 -23.7L298.5 -23.7Q298.3 -23.7 297.8 -23.4Q297.4 -23.1 297.1 -22.9L297.1 -22.9Q297.1 -21.5 297.1 -19.8Q297.1 -18.1 296.9 -16.6L296.9 -16.6Q296.7 -16.2 296.2 -15.9Q295.7 -15.7 295.1 -15.5L295.1 -15.5Q294.5 -15.3 293.9 -15.2Q293.4 -15.1 293.2 -15.1L293.2 -15.1L293.2 -14.8Q293.5 -14.6 293.7 -14.5Q293.9 -14.5 294.1 -14.3L294.1 -14.3L294.5 -14Q294.8 -13.9 295.8 -13.5Q296.8 -13 297.9 -12.5L297.9 -12.5Q298.4 -12.1 298.9 -11.9Q299.4 -11.7 299.8 -11.4L299.8 -11.4Q300.8 -10.9 301.2 -10.7Q301.6 -10.4 302.3 -9.9L302.3 -9.9Q303 -9.5 303 -8.7L303 -8.7Q303 -8.3 302.7 -7.9Q302.3 -7.6 301.8 -7.3L301.8 -7.3Q301.2 -6.9 300.8 -6.7Q300.4 -6.4 300.4 -6.2L300.4 -6.2L300.4 2.3Q300.4 2.8 299 3.4L299 3.4Q297.6 3.9 295.8 4.3Q294.1 4.7 292.5 4.9L292.5 4.9Q290.8 5.1 290.2 5.1L290.2 5.1Q289.4 5.1 289.2 4.6Q289 4.2 288.9 3.6L288.9 3.6Q288.8 3.2 288.8 3Q288.7 2.7 288.8 2.3L288.8 2.3Q288.9 1.9 288.9 1.7Q288.9 1.5 288.9 1.3L288.9 1.3L288.6 1L287.6 1Q285.1 1 282.7 1Q280.3 1.1 278 1.2L278 1.2Q275.7 1.2 273.3 1.3Q270.9 1.3 268.5 1.3L268.5 1.3Q268.1 2.7 266.8 3.5Q265.6 4.2 264 4.6L264 4.6Q262.4 5 260.7 5Q259 5.1 257.8 5.1L257.8 5.1Q257.3 5.1 257 4.9L257 4.9L257 2.3Q257 0.1 257 -2.2Q257 -4.5 257.1 -6.8L257.1 -6.8Q257.2 -9.1 257.2 -11.4Q257.3 -13.8 257.3 -16.1L257.3 -16.1L257.3 -26Q256.6 -24.3 255.7 -22.8Q254.7 -21.2 252.7 -20.7L252.7 -20.7Q251.9 -21.1 250.9 -22.3Q249.9 -23.5 248.9 -25L248.9 -25Q247.9 -26.4 247.2 -27.8Q246.5 -29.2 246.5 -30.2L246.5 -30.2Q248.2 -31.1 249.4 -31.9Q250.6 -32.6 251.8 -33.4L251.8 -33.4Q252.4 -33.8 252.8 -34.2Q253.3 -34.5 253.5 -34.8L253.5 -34.8L253.9 -35.6Q254.3 -36.1 254.7 -36.7Q255 -37.3 255.4 -37.9L255.4 -37.9Q255.7 -38.4 255.7 -38.6L255.7 -38.6L255.7 -38.9Q254.6 -38.5 253.6 -37.8Q252.6 -37 251.6 -36.2L251.6 -36.2Q250.6 -35.4 249.5 -34.9Q248.4 -34.3 247.1 -34.3L247.1 -34.3L246.3 -34.3Q246 -34.3 246 -34.8L246 -34.8Q246 -35.1 246.3 -35.5Q246.5 -35.9 246.9 -36.3L246.9 -36.3L247.5 -36.9Q247.8 -37.2 247.8 -37.4L247.8 -37.4L248.5 -38.3Q248.9 -39 249.4 -39.6Q249.9 -40.3 250.3 -40.9L250.3 -40.9L250.8 -41.7Q250.8 -41.8 251 -42Q251.1 -42.3 251.4 -42.6L251.4 -42.6Q251.6 -43 251.9 -43.4Q252.1 -43.8 252.4 -44.4L252.4 -44.4Q252.6 -44.8 252.9 -45.3Q253.1 -45.7 253.3 -46.2L253.3 -46.2Q253.8 -46.9 254 -47.5L254 -47.5Q254 -47.7 254.4 -48.4L254.4 -48.4Q254.6 -48.7 254.7 -48.9Q254.8 -49.1 254.8 -49.2L254.8 -49.2L254.8 -49.5M268.3 -5.6Q268.3 -5 268.2 -4.4Q268.2 -3.9 268.2 -3.7L268.2 -3.7L268.2 -3.2Q268.2 -2.7 268.5 -2.7L268.5 -2.7L275.8 -2.7Q279.2 -2.7 282.2 -2.7Q285.2 -2.7 288.9 -2.9L288.9 -2.9L288.9 -7.7L274.1 -7.7Q273.5 -7.6 273 -7.6Q272.5 -7.6 271.9 -7.6L271.9 -7.6Q271.4 -7.6 270.9 -7.6Q270.4 -7.6 269.9 -7.6L269.9 -7.6Q269.4 -7.5 269 -7.5Q268.7 -7.5 268.5 -7.5L268.5 -7.5L268.3 -5.6M258.6 -30Q258.8 -29.8 259.7 -29.6Q260.5 -29.4 260.7 -29.4L260.7 -29.4Q261.7 -29.3 262.6 -29.1Q263.4 -28.9 264.2 -28.7L264.2 -28.7Q265.5 -28.1 267.7 -27.5L267.7 -27.5L271.9 -27.5Q273.6 -27.5 275.3 -27.5Q277 -27.4 278.9 -27.4L278.9 -27.4Q282.4 -27.3 285.6 -28L285.6 -28Q286.2 -28.1 286.6 -28.5Q286.9 -28.9 287.3 -29.4L287.3 -29.4Q287.6 -29.8 287.9 -30.2Q288.2 -30.5 288.9 -30.5L288.9 -30.5L289.4 -30.5L294.8 -27.7Q295.3 -28.6 295.6 -29.4L295.6 -29.4Q295.6 -30.2 296.1 -31.3L296.1 -31.3L295.3 -31.3Q285.9 -31.3 276.8 -31.1Q267.8 -30.8 258.6 -30.2L258.6 -30.2L258.6 -30M268.5 -11.5Q273.8 -11.5 278.9 -11.6Q284 -11.7 289.4 -12L289.4 -12Q290 -12.4 290.4 -13.1Q290.7 -13.8 291 -14.3L291 -14.3L290.7 -14.3Q290.3 -14.3 289.9 -14.3Q289.5 -14.3 289.2 -14.2L289.2 -14.2Q288.7 -14.1 288.3 -14.1Q287.9 -14 287.6 -14L287.6 -14Q286.7 -14 286.4 -14.5Q286.1 -15 285.9 -15.8L285.9 -15.8L282.7 -15.8Q279 -15.8 275.5 -15.7Q272 -15.7 268.5 -15.3L268.5 -15.3L268.5 -11.5M268.8 -23.5Q268.6 -23 268.5 -22.5Q268.4 -22 268.4 -21.4L268.4 -21.4Q268.4 -20.7 268.5 -20.3L268.5 -20.3L268.5 -19.7Q272 -19.7 275.5 -19.7Q279 -19.7 282.7 -19.9L282.7 -19.9Q283 -19.9 283.5 -19.9Q284 -19.9 284.6 -20L284.6 -20L285.9 -20.2L286.2 -20.4L286.2 -23.5L285.9 -23.7L279.1 -23.7Q277.5 -23.7 275.8 -23.7Q274.2 -23.6 272.4 -23.5L272.4 -23.5Q271.6 -23.5 270.7 -23.5Q269.8 -23.5 268.8 -23.5L268.8 -23.5M256.2 -39.2Q257.2 -39 257.7 -38.5Q258.2 -38.1 258.4 -37.5L258.4 -37.5Q258.5 -37.2 258.5 -36.9Q258.6 -36.6 258.5 -36.2L258.5 -36.2L258.3 -34.6Q258.6 -34.3 259.1 -34.3L259.1 -34.3Q260.1 -34.3 260.9 -34.4Q261.8 -34.4 262.7 -34.5L262.7 -34.5Q263.4 -34.6 264.3 -34.6Q265.2 -34.6 266.1 -34.6L266.1 -34.6Q265.9 -34.8 265.7 -35Q265.5 -35.2 265.2 -35.4L265.2 -35.4Q264.9 -35.6 264.5 -36.4L264.5 -36.4Q264 -37.4 263.6 -38.8L263.6 -38.8Q263.4 -39.5 263.3 -40.1Q263.1 -40.8 262.9 -41.4L262.9 -41.4Q262.6 -42 262.2 -42.6L262.2 -42.6Q261.9 -42.8 261.8 -43.1Q261.7 -43.3 261.6 -43.7L261.6 -43.7Q260.2 -42.8 258.9 -41.5L258.9 -41.5L256.2 -39.4L256.2 -39.2M266.9 -44.2L267.9 -43.8Q268.3 -43.7 268.7 -43.6Q269.1 -43.6 269.4 -43.4L269.4 -43.4Q271.2 -42.8 271.9 -42.7L271.9 -42.7L272.5 -42.7Q272.7 -42.7 273.4 -42.5Q274 -42.3 274.8 -42.2L274.8 -42.2Q275.6 -42 276.2 -41.8Q276.8 -41.7 277.1 -41.7L277.1 -41.7L277.3 -41.7Q277.7 -41.7 278.1 -42.1Q278.4 -42.5 278.7 -43.1L278.7 -43.1Q279 -43.6 279.1 -44Q279.2 -44.5 279.2 -44.7L279.2 -44.7L270.1 -44.7Q269.9 -44.7 269.4 -44.7Q268.8 -44.6 268.3 -44.6L268.3 -44.6L266.3 -44.4L266.9 -44.2M274.7 -34.8Q274.7 -35.1 274.3 -35.7Q274 -36.4 273.4 -37.2L273.4 -37.2Q273 -37.8 272.4 -38.4L272.4 -38.4Q272.1 -38.6 272 -38.7Q271.9 -38.9 271.7 -38.9L271.7 -38.9Q270.9 -37.7 269.9 -36.6Q268.9 -35.6 267.7 -34.8L267.7 -34.8L274.7 -34.8M352 -49.8Q355.7 -49.8 359.4 -49.9Q363 -50.1 366.7 -50.3L366.7 -50.3L367 -50.3Q367.5 -50.5 367.8 -51.1L367.8 -51.1Q368.2 -51.7 368.6 -52.3Q368.9 -52.9 369.3 -53.4L369.3 -53.4Q369.7 -53.8 370.5 -53.8L370.5 -53.8Q371.1 -53.8 372.5 -53L372.5 -53Q374 -52.2 375.6 -51.1Q377.3 -50 378.6 -48.8L378.6 -48.8Q379.8 -47.6 379.8 -47L379.8 -47Q379.8 -46.4 379.4 -46.2Q379.1 -45.9 378.5 -45.7L378.5 -45.7Q378 -45.4 377.6 -45.1Q377.1 -44.8 377.1 -44.2L377.1 -44.2L377.1 -21.7Q377.1 -20.9 376 -20.4Q374.8 -19.9 373.4 -19.7L373.4 -19.7Q371.9 -19.4 370.5 -19.3Q369.1 -19.2 368.6 -19.2L368.6 -19.2Q368.1 -19.1 367.7 -19.1Q367.3 -19.2 367.3 -19.4L367.3 -19.4L367.3 -22.5L366.7 -22.7L365.1 -22.7Q364.9 -22.7 364.8 -22.5L364.8 -22.5Q364.6 -22.5 364.6 -22.5L364.6 -22.5L364.6 -14.3L368.1 -14.3L368.8 -15L369.6 -15.9Q370.7 -16.9 371.2 -17.4L371.2 -17.4L372.1 -17.9L372.1 -18.1Q372.7 -18.1 374 -17.1Q375.3 -16.1 376.5 -14.8L376.5 -14.8L378.5 -12.2Q379.4 -10.9 379.4 -10.5L379.4 -10.5Q379.4 -10.2 378.9 -10Q378.5 -9.9 377.9 -9.9L377.9 -9.9Q377.7 -9.9 377.5 -9.9Q377.2 -9.9 376.9 -10L376.9 -10L376.4 -10.1Q375 -10.1 373 -10Q371.1 -10 369.2 -9.9L369.2 -9.9L364.6 -9.8L364.3 -9.6L364.3 -2.2Q365.5 -2 366.3 -2Q367.1 -1.9 368.4 -1.9L368.4 -1.9Q369.1 -1.9 370 -2Q370.8 -2 371.8 -2.2L371.8 -2.2Q372.4 -2.3 372.9 -2.8Q373.4 -3.3 373.8 -3.9L373.8 -3.9Q374.3 -4.5 374.8 -5Q375.3 -5.5 376.1 -5.5L376.1 -5.5Q376.6 -5.5 377.8 -4.4L377.8 -4.4Q378.9 -3.4 380.1 -2.1Q381.2 -0.7 382 0.4L382 0.4Q382.8 1.7 382.8 1.8L382.8 1.8L382.2 2.3Q376.8 2.2 371.6 2.2Q366.3 2.3 360.9 2.4L360.9 2.4Q355.5 2.6 350.1 2.7Q344.8 2.8 339.4 2.8L339.4 2.8L337.5 2.8Q337.5 2.7 337.4 2.6Q337.3 2.4 337.2 2.2L337.2 2.2L336.2 0.4L336 -0.1L335.4 -0.9L335.4 -1.2L335.7 -1.4Q339.6 -1.4 343.2 -1.5Q346.8 -1.5 350.6 -1.7L350.6 -1.7Q350.9 -1.7 351.5 -1.8Q352 -1.8 352.4 -1.8L352.4 -1.8L353.6 -1.9L353.9 -2.2L353.9 -9.3L343.9 -9.3Q343.7 -9.7 343.4 -10.2Q343.2 -10.7 342.7 -11.2L342.7 -11.2Q341.9 -12 341.9 -13.1L341.9 -13.1Q341.9 -13.5 342.1 -13.5L342.1 -13.5Q342.7 -13.5 344.2 -13.6Q345.7 -13.6 347.5 -13.7L347.5 -13.7L352.8 -13.8L353.9 -13.8L353.9 -22.2L353.3 -22.3Q352.9 -22.4 352.7 -22.4Q352.4 -22.5 352.2 -22.5L352.2 -22.5L352 -22.5Q351.9 -21 350.8 -20.1Q349.8 -19.3 348.3 -18.9L348.3 -18.9Q347.6 -18.7 346.9 -18.6Q346.1 -18.6 345.3 -18.5L345.3 -18.5Q344.5 -18.4 343.8 -18.4Q343.1 -18.3 342.4 -18.1L342.4 -18.1Q341.9 -18.6 341.9 -18.9L341.9 -18.9L341.9 -21.4Q341.9 -23.8 341.9 -26.2Q341.9 -28.6 341.9 -31L341.9 -31Q342 -33.5 342 -35.9Q342.1 -38.2 342.1 -40.7L342.1 -40.7L342.1 -44.7L341.9 -45Q341.4 -44.9 339.9 -44.7L339.9 -44.7L335.1 -44.5Q334.1 -44.4 334.1 -44.2L334.1 -44.2L334.1 -39.2Q334.1 -39 334.1 -38.6Q334.1 -38.3 334.2 -37.8L334.2 -37.8Q334.2 -37.3 334.2 -36.8Q334.2 -36.3 334.2 -35.7L334.2 -35.7Q334.2 -35.1 334.2 -34.6Q334.2 -34.1 334.3 -33.6L334.3 -33.6L334.3 -32.3Q334.5 -32.4 334.8 -32.6Q335 -32.8 335.4 -33L335.4 -33Q336.1 -33.6 336.5 -33.6L336.5 -33.6Q336.9 -33.6 337.6 -32.9Q338.3 -32.3 339.1 -31.5L339.1 -31.5Q339.9 -30.7 340.5 -29.8Q341 -28.9 341 -28.5L341 -28.5Q341 -28 340.7 -28L340.7 -28L339.3 -27.9Q338.7 -27.8 338.3 -27.8Q338 -27.7 337.8 -27.7L337.8 -27.7L335.4 -27.7Q335.2 -27.7 335.1 -27.7Q334.9 -27.7 334.7 -27.6L334.7 -27.6L334.1 -27.5L334.1 -16.3L334.3 -14.8Q335.7 -14.8 337.6 -15.4L337.6 -15.4Q339.1 -15.8 340.7 -15.8L340.7 -15.8Q341.4 -15.8 341.7 -15.6Q342.1 -15.4 342.1 -14.6L342.1 -14.6Q342.1 -14.3 341.1 -13.8L341.1 -13.8Q340.9 -13.6 340.7 -13.5Q340.6 -13.5 340.4 -13.4L340.4 -13.4L339.9 -13.1Q339.3 -12.7 338.2 -12.1Q337.2 -11.4 336.2 -10.7L336.2 -10.7Q335.6 -10.3 335.1 -10Q334.6 -9.6 334.2 -9.4L334.2 -9.4Q333.3 -8.8 333.3 -8.8L333.3 -8.8L332.5 -8.2L331.1 -7.1L329.6 -6Q328.8 -5.4 328.3 -4.9Q327.8 -4.5 327.1 -3.7L327.1 -3.7Q326.3 -2.9 325.5 -2.2Q324.6 -1.4 323.8 -0.9L323.8 -0.9Q323 -0.4 322 -0.4L322 -0.4Q321.2 -0.4 320.3 -1.8Q319.5 -3.2 318.7 -5L318.7 -5Q317.9 -6.9 317.4 -8.7Q316.9 -10.4 316.9 -11L316.9 -11Q316.9 -11.6 317.4 -11.9Q317.9 -12.2 318.5 -12.3L318.5 -12.3Q318.8 -12.4 319.5 -12.5Q320.1 -12.7 320.9 -12.8L320.9 -12.8L323.3 -13.3L323.6 -13.5Q323.6 -15.3 323.6 -17Q323.6 -18.7 323.7 -20.4L323.7 -20.4Q323.8 -22.1 323.8 -23.8Q323.9 -25.6 323.9 -27.2L323.9 -27.2L319.6 -27.2Q319.6 -27.2 319.5 -27.4L319.5 -27.4Q319.3 -27.5 319.3 -27.7L319.3 -27.7L319 -28.5Q318.9 -29 318.5 -29.7L318.5 -29.7Q318.2 -30.2 318 -30.8Q317.7 -31.4 317.7 -31.6L317.7 -31.6Q318.2 -32 318.8 -32L318.8 -32Q318.9 -32 319.1 -32Q319.4 -32 319.8 -32L319.8 -32Q320.1 -31.9 320.3 -31.9Q320.5 -31.8 320.6 -31.8L320.6 -31.8L323.6 -31.8L323.9 -32L323.9 -44.5Q323.4 -44.5 322.9 -44.5Q322.5 -44.4 322 -44.4L322 -44.4Q321.6 -44.3 321.1 -44.2Q320.6 -44.2 320.1 -44.2L320.1 -44.2Q319.9 -44.2 319.7 -44.3Q319.5 -44.4 319.3 -44.7L319.3 -44.7L318.3 -46.5L317.7 -47.8L317.7 -48.7L325.5 -48.7Q327.5 -48.7 329.4 -48.8Q331.3 -49 333.3 -49.2L333.3 -49.2Q333.3 -49.5 333.7 -49.9Q334.1 -50.3 334.5 -50.6L334.5 -50.6Q335.4 -51.5 336 -51.8L336 -51.8L336.5 -52.1Q337 -52.1 337.8 -51.3Q338.6 -50.5 339.5 -49.5L339.5 -49.5L341.1 -47.4L342.1 -46.2L342.1 -53.4Q342.1 -53.6 342.6 -53.6L342.6 -53.6L342.9 -53.6L343.4 -53.5L343.9 -53.4L351.4 -49.8L352 -49.8M352.5 -38.1Q352.7 -38.1 353.1 -38.1Q353.4 -38.2 353.7 -38.2L353.7 -38.2L354.7 -38.4L354.7 -45.5Q354.4 -45.5 354.1 -45.5Q353.7 -45.5 353.4 -45.6L353.4 -45.6Q352.6 -45.6 352 -45.2L352 -45.2L351.7 -45L351.7 -38.4Q351.7 -38.1 352.2 -38.1L352.2 -38.1L352.5 -38.1M364.3 -38.7L367.3 -38.7L367.3 -45.7Q367.3 -45.9 367 -45.9L367 -45.9Q366.8 -45.9 366.7 -45.9L366.7 -45.9L366.2 -45.9Q366 -45.9 365.7 -45.9Q365.3 -45.9 365 -45.9L365 -45.9Q364.8 -45.8 364.6 -45.8Q364.5 -45.8 364.3 -45.7L364.3 -45.7L364.3 -38.7M364.6 -27L365.4 -27Q365.8 -26.9 366.2 -27Q366.5 -27 366.8 -27.1L366.8 -27.1Q367 -27.1 367 -27.2L367 -27.2L367.3 -34.1Q367.2 -34.2 367.1 -34.2L367.1 -34.2Q366.6 -34.3 366.7 -34.3L366.7 -34.3L364.6 -34.3L364.6 -27M351.7 -27.2L352 -26.5L354.1 -26.5Q354.1 -26.9 354.1 -27.8Q354.2 -28.6 354.2 -29.6L354.2 -29.6Q354.3 -30.5 354.3 -31.4Q354.4 -32.2 354.4 -32.5L354.4 -32.5L354.4 -34.1L352 -34.1L351.7 -27.2M399.4 -49.3Q402.8 -49.3 406 -49.4Q409.2 -49.5 412.6 -49.6L412.6 -49.6Q415.9 -49.8 419.2 -49.9Q422.5 -50 425.9 -50.1L425.9 -50.1Q428.9 -50.1 432.2 -50.1Q435.5 -50.1 438.4 -51L438.4 -51Q439 -51.3 439.4 -51.4Q439.8 -51.6 440.2 -51.8L440.2 -51.8Q440.9 -52.1 442.2 -52.1L442.2 -52.1Q443 -52.1 443.7 -51.7Q444.4 -51.3 445.1 -50.7L445.1 -50.7L446.3 -49.3L447.3 -48Q447.5 -47.8 447.7 -47.6Q448 -47.4 448.2 -47.1L448.2 -47.1Q448.3 -46.9 448.4 -46.8Q448.5 -46.7 448.6 -46.5L448.6 -46.5L448.6 -45.7Q447.8 -45.7 446.1 -45.7Q444.4 -45.6 442.4 -45.6L442.4 -45.6Q440.3 -45.6 438.5 -45.5Q436.8 -45.5 436 -45.5L436 -45.5Q434.8 -45.5 433.7 -45.5Q432.6 -45.5 431.6 -45.6L431.6 -45.6Q430.6 -45.6 429.6 -45.5Q428.5 -45.4 427.5 -45.3L427.5 -45.3Q427.5 -42.8 427.4 -40.3Q427.4 -37.9 427.3 -35.5L427.3 -35.5Q427.2 -33.1 427.2 -30.7Q427.2 -28.3 427.2 -25.8L427.2 -25.8L427.2 -23.3Q428.4 -23 429.3 -23Q430.3 -23 431.5 -23L431.5 -23L436.6 -23Q439.1 -22.9 441.6 -23.5L441.6 -23.5Q442.3 -23.7 442.8 -24.3Q443.4 -24.9 444 -25.6L444 -25.6Q444.5 -26.3 444.9 -26.8Q445.3 -27.3 445.7 -27.3L445.7 -27.3Q446.3 -27.3 447.2 -26.7Q448.1 -26.1 448.6 -25.8L448.6 -25.8L449.2 -25.3Q449.4 -25.1 449.6 -24.9Q449.8 -24.7 449.9 -24.6L449.9 -24.6Q450.1 -24.3 450.3 -24.2Q450.5 -24 450.6 -23.9L450.6 -23.9Q451 -23.5 451.1 -23.5L451.1 -23.5Q451.3 -23.3 451.7 -22.8Q452.2 -22.2 452.7 -21.5L452.7 -21.5Q453.2 -20.8 453.7 -20.2Q454.1 -19.6 454.2 -19.4L454.2 -19.4L454.2 -19.2Q454.2 -18.6 453.6 -18.5Q453 -18.4 452.7 -18.4L452.7 -18.4Q452 -18.4 450.5 -18.4Q449.1 -18.4 447.4 -18.5L447.4 -18.5Q445.8 -18.6 444.3 -18.6Q442.8 -18.6 442.2 -18.6L442.2 -18.6L441.6 -18.6Q439.8 -18.6 438.1 -18.6Q436.3 -18.6 434.6 -18.5L434.6 -18.5Q432.9 -18.4 431.1 -18.4Q429.3 -18.4 427.5 -18.4L427.5 -18.4L427.5 2Q427.5 3 426.1 3.7Q424.8 4.3 422.9 4.8L422.9 4.8Q421.1 5.2 419.4 5.4Q417.7 5.5 417 5.5L417 5.5L415.4 5.5L415.2 5.3L415 4.3Q414.9 4 414.9 3.6Q414.9 3.2 414.9 2.8L414.9 2.8L414.9 1.7Q414.9 -0.8 414.9 -3.3Q414.9 -5.8 415 -8.3L415 -8.3Q415.1 -10.8 415.1 -13.3Q415.2 -15.8 415.2 -18.4L415.2 -18.4Q412.4 -18.4 409.7 -18.4Q406.9 -18.4 404.1 -18.5L404.1 -18.5Q398.6 -18.6 392.9 -17.7L392.9 -17.7L392.3 -18.2L390.9 -20.3Q390.7 -20.7 390.5 -21Q390.2 -21.2 390 -21.6L390 -21.6Q389.5 -22.2 389.4 -22.5L389.4 -22.5L390 -22.8L408.7 -22.8Q409.2 -22.8 410.1 -22.8Q411 -22.8 412.1 -22.9L412.1 -22.9Q413.1 -22.9 414.1 -22.9Q415 -23 415.4 -23L415.4 -23L415.4 -36.4Q415.4 -36.9 415.4 -38.1Q415.4 -39.4 415.3 -40.8L415.3 -40.8Q415.2 -42.3 415.2 -43.5Q415.2 -44.7 415.2 -45.3L415.2 -45.3L414.9 -45.3Q412.6 -45.3 410.5 -45.2Q408.3 -45.1 406.2 -45L406.2 -45Q402 -44.8 397.7 -44.8L397.7 -44.8Q397.6 -44.8 397 -44.9Q396.5 -44.9 396.6 -45.3L396.6 -45.3L396.3 -45.9L395.7 -46.8Q395.4 -47.2 395.1 -47.7Q394.8 -48.1 394.8 -48.2L394.8 -48.2L393.8 -49.3L393.8 -49.5Q394.4 -49.5 395.1 -49.5Q395.8 -49.5 396.6 -49.5L396.6 -49.5Q397.3 -49.4 398 -49.4Q398.7 -49.3 399.4 -49.3L399.4 -49.3M436 -44L436.3 -44.3Q436.6 -44.3 437.6 -43.8Q438.6 -43.3 440 -42.6Q441.3 -41.9 442.8 -41Q444.3 -40.2 445.6 -39.5Q446.8 -38.7 447.7 -38.2Q448.6 -37.7 448.6 -37.7L448.6 -37.7Q448.6 -37.1 448.3 -36.6L448.3 -36.6Q448.2 -36.3 448 -35.9Q447.8 -35.6 447.6 -35.5L447.6 -35.5L446.5 -35.2Q446 -35.2 445.5 -34.8L445.5 -34.8Q443.6 -33.6 441.8 -32.4Q440.1 -31.2 438.4 -30.1L438.4 -30.1Q436.7 -28.9 434.8 -27.8Q433 -26.6 431 -25.5L431 -25.5Q430.6 -25.3 430.4 -25.3Q430.3 -25.3 429.8 -25.3L429.8 -25.3Q429.5 -25.3 429.2 -25.3Q428.8 -25.4 428.8 -25.8L428.8 -25.8Q428.8 -26.6 429.2 -27.4Q429.5 -28.2 429.8 -28.8L429.8 -28.8L436 -44M397.2 -41.5Q397.4 -42 397.7 -42.4Q398 -42.7 398.8 -42.7L398.8 -42.7L399.1 -42.7Q399.5 -42.6 400.5 -42.2Q401.5 -41.8 402.6 -41.4L402.6 -41.4Q403.6 -41 404.6 -40.5Q405.6 -40.1 406.1 -39.9L406.1 -39.9L408.2 -38.9Q409.4 -38.3 410.5 -37.5Q411.7 -36.8 412.5 -35.8L412.5 -35.8Q413.3 -34.6 413.3 -33.3L413.3 -33.3Q413.3 -32.5 413 -31.5Q412.8 -30.4 412.2 -29.8L412.2 -29.8L407.7 -25.3Q407.2 -24.9 406.4 -24.6Q405.6 -24.2 405 -24.2L405 -24.2Q404.1 -24.2 403.7 -24.7Q403.2 -25.3 403.3 -26.1L403.3 -26.1Q402.3 -30.4 400.9 -34Q399.5 -37.6 397.2 -41.5L397.2 -41.5M485.6 -54.8Q485.7 -55 486.1 -55.3Q486.4 -55.6 486.6 -55.6L486.6 -55.6Q486.8 -55.6 488.1 -55.2L488.1 -55.2L493.7 -52.6Q495.3 -51.8 496.6 -50.9Q498 -50.1 498.8 -49.4L498.8 -49.4Q499.8 -48.7 499.8 -48.2L499.8 -48.2Q499.8 -48 499.2 -47.4L499.2 -47.4Q494.9 -44.5 490.6 -41.7Q486.4 -38.8 482 -36.1L482 -36.1L482 -35.8L505.1 -35.8L505.1 -36.4Q504.5 -36.9 504.2 -37.6L504.2 -37.6Q503.4 -38.7 502.8 -39.7Q502.1 -40.6 501.4 -41.4L501.4 -41.4Q501 -41.8 500.7 -42.3Q500.3 -42.7 500 -43.1L500 -43.1Q500.4 -43.7 500.7 -43.8Q501 -43.9 501.6 -43.9L501.6 -43.9Q503.2 -43.9 505.2 -43.3L505.2 -43.3Q506.2 -42.9 506.9 -42.6Q507.7 -42.3 508.3 -42.2L508.3 -42.2Q509.5 -41.8 511.6 -41Q513.6 -40.2 515.7 -39.2L515.7 -39.2Q517.8 -38.2 519.5 -36.9Q521.3 -35.6 521.9 -34.3L521.9 -34.3Q522.1 -33.8 522.2 -33.1Q522.2 -32.4 522.2 -31.8L522.2 -31.8Q522.2 -30.4 521.6 -29.4Q521 -28.4 520.1 -27.4L520.1 -27.4L518.2 -25.7Q517.7 -25.3 517.3 -24.8Q517 -24.3 516.6 -23.7L516.6 -23.7L516.6 -23.4Q516.2 -23.4 515.6 -23.5Q515 -23.5 514.4 -23.7L514.4 -23.7Q513.8 -23.8 513.3 -24Q512.8 -24.3 512.6 -24.7L512.6 -24.7L509.1 -30.7Q509 -30.8 508.9 -30.8Q508.8 -30.8 508.8 -30.9L508.8 -30.9Q508.3 -31 508.3 -31L508.3 -31Q508.2 -31 507.5 -30.9L507.5 -30.9L507 -30.7L506.7 -30.7Q506.4 -30.7 505.4 -30.6Q504.4 -30.5 503.2 -30.2L503.2 -30.2Q502 -30 501 -29.9Q500 -29.7 499.8 -29.7L499.8 -29.7Q498.3 -29.5 496.7 -29.3Q495 -29.2 493.1 -28.9L493.1 -28.9Q489.2 -28.6 485.4 -28Q481.5 -27.5 477.9 -26.7L477.9 -26.7Q476.1 -26.4 474.5 -25.9Q472.9 -25.5 471.6 -24.9L471.6 -24.9L472.4 -24.7L472.7 -24.7Q472.8 -24.6 473.5 -24.4Q474.1 -24.2 474.8 -24L474.8 -24Q475.6 -23.9 476.2 -23.7Q476.8 -23.5 477 -23.4L477 -23.4L479.5 -23Q481.1 -22.6 482 -21.9L482 -21.9L489.3 -21.9Q493 -21.9 496.1 -21.9Q499.2 -22 502.9 -22.1L502.9 -22.1Q503.6 -22.3 504 -23Q504.4 -23.6 504.8 -24.3L504.8 -24.3Q505.2 -25 505.6 -25.5Q506 -26 506.7 -26L506.7 -26L507 -26Q507.4 -25.8 508.8 -25.2Q510.1 -24.6 511.6 -23.9L511.6 -23.9Q513 -23.1 514.3 -22.5Q515.6 -21.9 516 -21.6L516 -21.6Q516.5 -21.3 517.1 -21Q517.8 -20.7 518.3 -20.2Q518.8 -19.8 519.2 -19.3Q519.6 -18.8 519.6 -18.1L519.6 -18.1Q519.6 -17.4 519.1 -17.2Q518.6 -17 518 -16.9L518 -16.9Q517.5 -16.8 516.9 -16.6Q516.4 -16.3 516.3 -15.8L516.3 -15.8Q516 -11.4 515.9 -6.9Q515.8 -2.4 515.8 1.8L515.8 1.8Q515.2 2.6 513.8 3.2Q512.5 3.7 510.8 4.1L510.8 4.1Q509.2 4.5 507.7 4.7Q506.3 4.9 505.7 4.9L505.7 4.9L504.3 4.9L504 4.6Q503.9 4 503.7 3.4Q503.6 2.8 503.7 2.2L503.7 2.2Q503.8 1.5 503.8 0.9Q503.8 0.2 503.8 -0.4L503.8 -0.4L488.5 -0.4Q487.9 -0.4 486.9 -0.3Q485.9 -0.3 485.1 -0.2L485.1 -0.2L482.8 -0.1L482.8 2.4Q482.8 2.9 481.3 3.3L481.3 3.3Q479.8 3.9 477.9 4.3Q476 4.8 474.1 5L474.1 5Q473.3 5.2 472.7 5.3Q472.2 5.4 471.9 5.4L471.9 5.4L470.8 5.4Q470.2 5.2 470.2 4.4L470.2 4.4L470.2 3.3Q470.2 1.2 470.3 -1Q470.3 -3.2 470.4 -5.4L470.4 -5.4Q470.4 -7.7 470.5 -9.9Q470.5 -12.1 470.5 -14.3L470.5 -14.3L470.5 -24.4Q470.3 -24.8 469.8 -25.2L469.8 -25.2L468.9 -26Q467.5 -27.6 466.5 -30Q465.5 -32.3 464.9 -34.3L464.9 -34.3L464.9 -34.6Q464.9 -34.9 465.8 -35.5L465.8 -35.5Q466.8 -35.9 468.1 -36.2Q469.3 -36.6 470.4 -36.9L470.4 -36.9Q471.5 -37.2 471.9 -37.4L471.9 -37.4Q474.1 -38.8 476.2 -40.8Q478.2 -42.8 480 -45.1L480 -45.1Q481.8 -47.4 483.2 -49.9Q484.6 -52.4 485.6 -54.8L485.6 -54.8M482.8 -15.6L482.8 -5L490 -5Q490.2 -5 490.5 -5Q490.8 -5 491.3 -5L491.3 -5Q491.7 -5 492.2 -5Q492.7 -5 493.3 -5.1L493.3 -5.1Q493.8 -5.1 494.4 -5.1Q494.9 -5.1 495.4 -5.2L495.4 -5.2L499.8 -5.2Q500.1 -5.2 500.8 -5.2Q501.4 -5.3 502 -5.3L502 -5.3L503.5 -5.4L503.8 -5.7Q503.8 -6.4 503.8 -7.1Q503.8 -7.8 503.9 -8.5L503.9 -8.5Q503.9 -9.6 504 -10.9Q504 -12.1 504 -13L504 -13L504 -17.1L503.9 -17.6Q503.8 -17.6 503.8 -17.9L503.8 -17.9L502.2 -17.9L500.3 -17.7Q499.8 -17.6 499.3 -17.6Q498.8 -17.6 498.5 -17.6L498.5 -17.6Q498 -17.6 497.7 -17.6Q497.4 -17.6 497.3 -17.6L497.3 -17.6Q495.8 -17.5 494.3 -17.5Q492.8 -17.4 491.3 -17.5L491.3 -17.5Q489.8 -17.6 488.3 -17.5Q486.8 -17.5 485.3 -17.4L485.3 -17.4Q485.1 -17.4 484.7 -17.3Q484.3 -17.3 484 -17.2L484 -17.2L483.1 -17.1L482.8 -15.6z" style="" fill="#ffffff" id="namepathdata"/></g></g>
              <g class="slogan"><g id="sloganDefaultGroup"><path d="M219.18750000000003 20.9L219.18750000000003 28.400000000000002Q219.18750000000003 29.2 218.98750000000004 29.8Q218.68750000000003 30.5 218.18750000000003 30.900000000000002Q217.78750000000002 31.3 217.18750000000003 31.6Q216.58750000000003 31.8 215.88750000000005 31.8L215.88750000000005 31.8L205.68750000000003 31.8L205.68750000000003 20.9L219.18750000000003 20.9M208.18750000000003 22.4L208.18750000000003 30.2L213.68750000000003 30.2L213.68750000000003 22.4L208.18750000000003 22.4M226.48750000000004 30.3L233.08750000000003 30.3L233.08750000000003 31.8L221.48750000000004 31.8L221.48750000000004 21L233.08750000000003 21L233.08750000000003 22.5L226.48750000000004 22.5L226.48750000000004 30.3M241.58750000000003 22.4L241.58750000000003 30.3L244.38750000000005 30.3L244.38750000000005 31.8L236.68750000000003 31.8L236.68750000000003 22.4L234.28750000000002 22.4L234.28750000000002 20.8L236.68750000000003 20.8L236.68750000000003 17L241.58750000000003 17L241.58750000000003 20.8L244.38750000000005 20.8L244.38750000000005 22.4L241.58750000000003 22.4M259.08750000000003 20.9L259.08750000000003 28.400000000000002Q259.08750000000003 29.2 258.7875 29.8Q258.4875 30.5 258.08750000000003 30.900000000000002Q257.58750000000003 31.3 256.9875 31.6Q256.38750000000005 31.8 255.68750000000003 31.8L255.68750000000003 31.8L245.58750000000003 31.8L245.58750000000003 20.9L259.08750000000003 20.9M247.98750000000004 22.4L247.98750000000004 30.2L253.48750000000004 30.2L253.48750000000004 22.4L247.98750000000004 22.4M274.38750000000005 21L269.6875 31.8L265.08750000000003 31.8L260.38750000000005 21L262.9875 21L266.18750000000006 28.2L269.38750000000005 21L274.38750000000005 21M278.1875 27.7L278.1875 30.3L289.6875 30.3L289.6875 31.8L275.6875 31.8L275.6875 21L289.6875 21L289.6875 25.200000000000003Q289.6875 26.5 288.98750000000007 27.1Q288.38750000000005 27.7 287.1875 27.7L287.1875 27.7L278.1875 27.7M278.1875 22.5L278.1875 26.200000000000003L284.6875 26.200000000000003L284.6875 22.5L278.1875 22.5M304.7875 21L304.7875 28.5Q304.7875 30 303.6875 30.900000000000002Q302.58750000000003 31.8 300.6875 31.8L300.6875 31.8L291.88750000000005 31.8L291.88750000000005 25.1L299.7875 25.1L299.7875 22.6L291.88750000000005 22.6L291.88750000000005 21L304.7875 21M299.88750000000005 30.3L299.7875 26.6L294.48750000000007 26.6L294.48750000000007 30.3L299.88750000000005 30.3M320.58750000000003 21L320.58750000000003 31.8L315.58750000000003 31.8L315.58750000000003 31.2Q315.1875 31.5 314.7875 31.7Q314.2875 31.8 313.7875 31.8L313.7875 31.8L307.08750000000003 31.8L307.08750000000003 21L309.58750000000003 21L309.58750000000003 30.5L313.08750000000003 30.5Q313.7875 30.5 314.48750000000007 30.2Q315.1875 29.900000000000002 315.58750000000003 29.3L315.58750000000003 29.3L315.58750000000003 21L320.58750000000003 21z" style="" fill="#ffffff" id="sloganpathdata"/></g></g>
            </g>
            <g class="border">
            </g>
          </g>
          
          <defs id="defs">
            <mask xmlns="http://www.w3.org/2000/svg" id="mask">
                <rect id="showAll" fill="white" x="-35.625" y="-93.1" width="595.325" height="162.4"/>
                <rect id="hideNameBg" fill="black" x="0" y="0" width="0" height="0" stroke-width="2" stroke="black"/>
                <rect id="hideSloganBg" fill="black" x="0" y="0" width="0" height="0" stroke-width="2" stroke="black"/>
            <path d="M25.8 -22.5Q25.4 -22.5 25.1 -23L25.1 -23Q24.6 -23.8 24.6 -24.6L24.6 -24.6Q24.3 -25.5 23.5 -26.8L23.5 -26.8Q22.4 -28.9 19.8 -30.1L19.8 -30.1Q17.9 -31 14.3 -31.2L14.3 -31.2Q12.2 -31.4 10.7 -30.4Q9.1 -29.4 9.1 -27.9L9.1 -27.9Q9.1 -26.8 9.9 -25.8L9.9 -25.8Q10.7 -24.8 13 -23.8L13 -23.8Q13.5 -23.6 15.5 -22.8L15.5 -22.8L18.2 -21.7Q21 -20.7 20.8 -20.8L20.8 -20.8L22.6 -20.1Q24.2 -19.5 25.9 -18.4Q27.6 -17.2 28.6 -15.6L28.6 -15.6Q29.8 -13.7 29.8 -11L29.8 -11Q29.8 -8.6 28.7 -6.4L28.7 -6.4Q27.1 -3.2 24 -1.5Q20.9 0.1 17 0L17 0Q13.2 0.1 10.6 -0.9L10.6 -0.9Q8.6 -1.7 7.4 -2.7L7.4 -2.7Q6 -3.7 5.4 -3.7L5.4 -3.7Q4.9 -3.5 4.7 -2.8Q4.5 -2.2 4.5 -2L4.5 -2Q4.2 -0.9 3.7 -0.2L3.7 -0.2Q3.3 0.3 2.9 0.3L2.9 0.3Q2.3 0.3 2.1 -0.3Q1.8 -0.9 1.9 -2.1L1.9 -2.1L1.9 -10.5Q1.9 -11.2 2.2 -11.8Q2.4 -12.3 3 -12.3L3 -12.3Q3.4 -12.3 4 -11.6L4 -11.6L4.7 -9.9Q5 -9.2 5.8 -8.1Q6.7 -6.9 7.6 -6L7.6 -6Q9.3 -4.7 11.6 -3.7Q13.8 -2.8 15.8 -3L15.8 -3Q17.6 -3 18.6 -3.5L18.6 -3.5Q19.8 -4 20.8 -5.2Q21.8 -6.4 21.7 -7.6L21.7 -7.6Q21.7 -8.7 20.7 -9.9L20.7 -9.9Q19.8 -11 16.5 -12.4L16.5 -12.4L12 -14.3Q10.2 -15 8.7 -15.8Q7.2 -16.5 5.7 -17.4L5.7 -17.4Q4.1 -18.4 3.2 -20.2Q2.4 -22 2.4 -24L2.4 -24Q2.4 -26.4 3.3 -28.3L3.3 -28.3Q6.3 -34.3 15.8 -33.9L15.8 -33.9Q16.7 -33.9 18.7 -33.2Q20.7 -32.5 21.2 -32.3L21.2 -32.3Q23.3 -31.5 23.5 -31.5L23.5 -31.5Q24 -31.5 24.4 -32.3L24.4 -32.3L25.1 -33.4Q25.5 -34.1 25.9 -34.1L25.9 -34.1Q26.4 -34.1 26.6 -33.6Q26.9 -33 26.9 -32L26.9 -32L26.9 -24.5Q26.9 -23.6 26.6 -23Q26.3 -22.5 25.8 -22.5L25.8 -22.5M58 -22.5Q57.6 -22.5 57.2 -23L57.2 -23Q56.8 -23.8 56.7 -24.6L56.7 -24.6Q56.5 -25.5 55.7 -26.8L55.7 -26.8Q54.6 -28.9 52 -30.1L52 -30.1Q50.1 -31 46.5 -31.2L46.5 -31.2Q44.4 -31.4 42.9 -30.4Q41.3 -29.4 41.3 -27.9L41.3 -27.9Q41.3 -26.8 42.1 -25.8L42.1 -25.8Q42.9 -24.8 45.1 -23.8L45.1 -23.8Q45.7 -23.6 47.7 -22.8L47.7 -22.8L50.4 -21.7Q53.2 -20.7 53 -20.8L53 -20.8L54.8 -20.1Q56.4 -19.5 58.1 -18.4Q59.8 -17.2 60.8 -15.6L60.8 -15.6Q62 -13.7 62 -11L62 -11Q62 -8.6 60.9 -6.4L60.9 -6.4Q59.3 -3.2 56.2 -1.5Q53.1 0.1 49.2 0L49.2 0Q45.4 0.1 42.8 -0.9L42.8 -0.9Q40.8 -1.7 39.6 -2.7L39.6 -2.7Q38.2 -3.7 37.6 -3.7L37.6 -3.7Q37.1 -3.5 36.9 -2.8Q36.7 -2.2 36.6 -2L36.6 -2Q36.4 -0.9 35.9 -0.2L35.9 -0.2Q35.5 0.3 35.1 0.3L35.1 0.3Q34.5 0.3 34.2 -0.3Q34 -0.9 34.1 -2.1L34.1 -2.1L34.1 -10.5Q34.1 -11.2 34.3 -11.8Q34.6 -12.3 35.1 -12.3L35.1 -12.3Q35.6 -12.3 36.2 -11.6L36.2 -11.6L36.9 -9.9Q37.2 -9.2 38 -8.1Q38.9 -6.9 39.8 -6L39.8 -6Q41.5 -4.7 43.7 -3.7Q46 -2.8 48 -3L48 -3Q49.8 -3 50.8 -3.5L50.8 -3.5Q52 -4 53 -5.2Q54 -6.4 53.9 -7.6L53.9 -7.6Q53.9 -8.7 52.9 -9.9L52.9 -9.9Q52 -11 48.7 -12.4L48.7 -12.4L44.1 -14.3Q42.4 -15 40.9 -15.8Q39.4 -16.5 37.9 -17.4L37.9 -17.4Q36.3 -18.4 35.4 -20.2Q34.6 -22 34.6 -24L34.6 -24Q34.6 -26.4 35.5 -28.3L35.5 -28.3Q38.4 -34.3 48 -33.9L48 -33.9Q48.9 -33.9 50.9 -33.2Q52.8 -32.5 53.4 -32.3L53.4 -32.3Q55.5 -31.5 55.7 -31.5L55.7 -31.5Q56.2 -31.5 56.6 -32.3L56.6 -32.3L57.2 -33.4Q57.7 -34.1 58.1 -34.1L58.1 -34.1Q58.5 -34.1 58.8 -33.6Q59.1 -33 59.1 -32L59.1 -32L59.1 -24.5Q59.1 -23.6 58.8 -23Q58.5 -22.5 58 -22.5L58 -22.5M67.9 -25.1Q68.8 -27.4 70.9 -29.5Q73 -31.5 75.6 -32.7Q78.3 -33.8 80.7 -33.8L80.7 -33.8Q83.1 -33.8 85.3 -33Q87.6 -32.3 90.3 -30L90.3 -30Q92.1 -28.5 93.3 -26.2Q94.5 -23.8 95 -21.4L95 -21.4Q95.5 -19.7 95.5 -16.8L95.5 -16.8Q95.6 -14 95.3 -12.1L95.3 -12.1Q94.1 -6.8 90.6 -3.5L90.6 -3.5Q88.7 -1.7 86.2 -0.7Q83.7 0.2 81.4 0.2L81.4 0.2Q78.3 0.2 75.6 -0.8Q72.9 -1.8 70.5 -4L70.5 -4Q68 -6.3 67.1 -9.6Q66.2 -12.9 66.2 -16.8L66.2 -16.8Q66.2 -21.3 67.9 -25.1L67.9 -25.1M76 -12Q76 -9.1 76.7 -6.7L76.7 -6.7Q77.3 -4.7 78.3 -3.8L78.3 -3.8Q79.3 -3 80.9 -3L80.9 -3Q82.7 -3 84 -4.2L84 -4.2Q85.3 -5.5 85.6 -8.2Q85.9 -11 85.9 -16.1L85.9 -16.1L85.8 -20.2Q85.7 -21.4 85.7 -23.2L85.7 -23.2L85.5 -25.1Q85.2 -27.3 84.1 -28.9Q82.9 -30.5 80.9 -30.5L80.9 -30.5Q78.8 -30.5 77.3 -28.4L77.3 -28.4Q76.8 -27.6 76.5 -26.2L76.5 -26.2Q76.2 -24.8 76 -21.7L76 -21.7L75.9 -17.1Q75.8 -16.1 76 -12L76 -12M127.6 -48L149.3 -55.3L149.5 -55.3Q149.8 -55.3 150.8 -54.7L150.8 -54.7Q151.6 -54.1 152.7 -53.2Q153.9 -52.3 155.1 -51.2L155.1 -51.2Q156.3 -50 157.5 -49Q158.7 -48 159.6 -47L159.6 -47Q160.6 -46.1 160.8 -45.6L160.8 -45.6Q160.8 -45.4 159.6 -45.1L159.6 -45.1Q158.3 -44.8 156.3 -44.6Q154.3 -44.4 152 -44.1L152 -44.1L143.7 -43.6Q142.9 -43.5 142.4 -43.5Q141.8 -43.4 141.6 -43.4L141.6 -43.4L139.8 -43.3Q139.5 -43.2 139.2 -43.2Q139 -43.2 138.7 -43.2L138.7 -43.2Q138.3 -43.1 138 -43.1L138 -43.1L135.4 -43.1L131.9 -43Q130.8 -42.9 129.7 -42.9Q128.7 -42.8 128.4 -42.8L128.4 -42.8L125.6 -42.8Q125.3 -42.8 125 -42.8Q124.7 -42.8 124.3 -42.8L124.3 -42.8L123 -42.8Q122.6 -42.7 122.5 -42.7Q122.3 -42.7 122.3 -42.7L122.3 -42.7L120.7 -42.7L120.4 -34.8L120.7 -34.6L122 -34.6Q124.7 -34.6 127.4 -34.6Q130.2 -34.7 132.9 -34.8L132.9 -34.8L143.7 -35.3L148.2 -35.3Q150.8 -35.3 152.8 -36.1L152.8 -36.1Q153.5 -36.4 154.2 -37L154.2 -37L155.2 -38.1L156.3 -38.9L157.2 -38.7Q157.5 -38.7 157.9 -38.6Q158.2 -38.4 158.4 -38.3L158.4 -38.3Q159.1 -37.7 159.4 -37.4Q159.8 -37.1 160.5 -36.4L160.5 -36.4L163 -33.5Q163.3 -33.1 163.4 -32.9Q163.6 -32.6 163.7 -32.5L163.7 -32.5L164 -32L164 -31.8Q164 -31.4 163.7 -31.2Q163.4 -31.1 162.9 -31L162.9 -31Q162.4 -30.9 162.1 -31L162.1 -31L161.4 -31Q160.8 -31 158.6 -31Q156.4 -31 153.9 -30.9L153.9 -30.9L146.4 -30.7L143.4 -30.7Q140.6 -30.6 137.8 -30.5Q134.9 -30.4 132 -30.2L132 -30.2Q126.4 -29.7 120.7 -30L120.7 -30L120.4 -29.7Q120.3 -29.4 120.3 -29.1Q120.3 -28.7 120.3 -28.4L120.3 -28.4Q120.2 -27.8 120.2 -27.2Q120.2 -26.6 120.2 -26.2L120.2 -26.2L119.3 -19.4L119.3 -19.1Q118.7 -15.6 117.8 -12.8Q116.9 -10.1 115.4 -7.7L115.4 -7.7Q114 -5.3 112 -3.1Q110 -0.9 107.3 1.6L107.3 1.6Q106.1 2.6 104.7 3.7Q103.3 4.8 101.9 5.4L101.9 5.4L101.6 5.4Q101.2 5 101.2 4.8Q101.1 4.5 101.1 4.1L101.1 4.1L101.1 3.6Q102.7 0.8 104.3 -2.4Q105.9 -5.7 106.5 -9L106.5 -9Q106.6 -9.6 106.8 -11.1Q107.1 -12.6 107.4 -14.3L107.4 -14.3Q107.6 -15.1 107.7 -15.9Q107.9 -16.7 108 -17.5L108 -17.5Q108.1 -17.9 108.2 -18.9Q108.4 -20 108.5 -21.2Q108.6 -22.3 108.8 -23.3Q108.9 -24.3 108.9 -24.6L108.9 -24.6Q108.9 -24.8 108.9 -25.3Q108.9 -25.7 109 -26.2L109 -26.2Q109.1 -26.7 109.1 -27.1Q109.2 -27.5 109.2 -27.7L109.2 -27.7L109.2 -35.6Q109.2 -37.4 109.1 -39.1Q109.1 -40.9 109 -42.7L109 -42.7Q108.9 -44.4 108.9 -46.1Q108.9 -47.9 108.9 -49.8L108.9 -49.8Q108.9 -49.9 109.2 -50.3Q109.6 -50.8 109.9 -50.8L109.9 -50.8L110.2 -50.8Q110.3 -50.8 110.9 -50.5L110.9 -50.5Q111.4 -50.3 111.6 -50.3L111.6 -50.3Q111.7 -50.2 111.7 -50.1Q111.8 -50 112.1 -49.9L112.1 -49.9Q112.6 -49.8 113.2 -49.5Q113.8 -49.2 114.3 -49L114.3 -49L114.8 -48.7L116.6 -48L117.8 -47.5Q118.4 -47.3 118.5 -47.2Q118.7 -47.1 119.2 -46.5L119.2 -46.5Q119.7 -45.9 119.9 -45.9L119.9 -45.9L120.2 -45.9L127.6 -48M146.2 -22.1Q146.6 -22.4 147 -23.1Q147.3 -23.8 147.7 -24.6L147.7 -24.6Q148 -25.3 148.4 -25.8Q148.8 -26.4 149.3 -26.5L149.3 -26.5Q149.5 -26.5 150.1 -26.2Q150.7 -25.8 150.9 -25.7L150.9 -25.7L152.4 -24.8L154.4 -23.5Q155.4 -22.9 156.4 -22.4Q157.3 -21.8 157.7 -21.6L157.7 -21.6Q157.8 -21.5 157.8 -21.5Q157.9 -21.4 158.1 -21.3L158.1 -21.3Q158.3 -21.2 158.5 -21Q158.7 -20.9 158.9 -20.7L158.9 -20.7Q159.3 -20.4 159.6 -20.2Q159.9 -19.9 160.1 -19.9L160.1 -19.9Q160.5 -20 161.1 -19.5Q161.6 -18.9 161.6 -18.6L161.6 -18.6Q161.6 -18.1 161.1 -17.7Q160.5 -17.4 159.9 -17.1L159.9 -17.1Q159.1 -16.8 158.7 -16.7L158.7 -16.7Q158.1 -16.5 158.1 -16.3L158.1 -16.3L158.1 1.3Q158.1 2.1 156.8 2.7Q155.4 3.4 153.6 3.9L153.6 3.9Q151.9 4.4 150.3 4.6Q148.6 4.9 148 4.9L148 4.9L146.9 4.9Q146.2 4.5 146.2 3.6L146.2 3.6L146.2 -0.1L145.9 -0.4L142.6 -0.4Q140 -0.4 137.7 -0.3Q135.4 -0.3 133 -0.1L133 -0.1L133 1.9Q133 2 132.9 2.5Q132.8 3 132.4 3.1L132.4 3.1Q130 4.1 127.2 4.8Q124.3 5.4 121.5 5.4L121.5 5.4Q120.9 5.4 120.7 5.2L120.7 5.2L120.7 0.8Q120.7 0.6 120.7 0.5Q120.7 0.4 120.7 0L120.7 0Q120.7 -0.1 120.7 -0.5Q120.7 -0.8 120.8 -1.2L120.8 -1.2Q120.8 -1.5 120.8 -1.8Q120.8 -2 120.9 -2.4L120.9 -2.4L120.9 -25.2Q120.9 -25.7 121.2 -25.9L121.2 -25.9Q122.6 -25.6 124.1 -24.9Q125.6 -24.3 127.2 -23.6L127.2 -23.6Q128.7 -22.8 130.2 -22.4Q131.7 -21.9 133 -21.9L133 -21.9Q134.6 -21.9 136.3 -21.9Q137.9 -22 139.5 -22L139.5 -22Q141.2 -22 142.8 -22.1Q144.5 -22.1 146.2 -22.1L146.2 -22.1M133 -17.1Q132.8 -14.1 132.7 -10.9Q132.7 -7.6 132.7 -5L132.7 -5L136.4 -5Q136.6 -5 136.9 -5Q137.2 -5 137.8 -5L137.8 -5Q138.4 -5 138.9 -5Q139.5 -5 140.1 -5.1L140.1 -5.1L145 -5.1L145.7 -5.3L146.2 -5.4L146.2 -17.6Q142.8 -17.6 139.6 -17.5Q136.3 -17.4 133 -17.1L133 -17.1M197.6 -54.8Q197.7 -55 198.1 -55.3Q198.4 -55.6 198.6 -55.6L198.6 -55.6Q198.8 -55.6 200.1 -55.2L200.1 -55.2L205.7 -52.6Q207.3 -51.8 208.6 -50.9Q210 -50.1 210.8 -49.4L210.8 -49.4Q211.8 -48.7 211.8 -48.2L211.8 -48.2Q211.8 -48 211.2 -47.4L211.2 -47.4Q206.9 -44.5 202.6 -41.7Q198.4 -38.8 194 -36.1L194 -36.1L194 -35.8L217.1 -35.8L217.1 -36.4Q216.5 -36.9 216.2 -37.6L216.2 -37.6Q215.4 -38.7 214.8 -39.7Q214.1 -40.6 213.4 -41.4L213.4 -41.4Q213 -41.8 212.7 -42.3Q212.3 -42.7 212 -43.1L212 -43.1Q212.4 -43.7 212.7 -43.8Q213 -43.9 213.6 -43.9L213.6 -43.9Q215.2 -43.9 217.2 -43.3L217.2 -43.3Q218.2 -42.9 218.9 -42.6Q219.7 -42.3 220.3 -42.2L220.3 -42.2Q221.5 -41.8 223.6 -41Q225.6 -40.2 227.7 -39.2L227.7 -39.2Q229.8 -38.2 231.5 -36.9Q233.3 -35.6 233.9 -34.3L233.9 -34.3Q234.1 -33.8 234.2 -33.1Q234.2 -32.4 234.2 -31.8L234.2 -31.8Q234.2 -30.4 233.6 -29.4Q233 -28.4 232.1 -27.4L232.1 -27.4L230.2 -25.7Q229.7 -25.3 229.3 -24.8Q229 -24.3 228.6 -23.7L228.6 -23.7L228.6 -23.4Q228.2 -23.4 227.6 -23.5Q227 -23.5 226.4 -23.7L226.4 -23.7Q225.8 -23.8 225.3 -24Q224.8 -24.3 224.6 -24.7L224.6 -24.7L221.1 -30.7Q221 -30.8 220.9 -30.8Q220.8 -30.8 220.8 -30.9L220.8 -30.9Q220.3 -31 220.3 -31L220.3 -31Q220.2 -31 219.5 -30.9L219.5 -30.9L219 -30.7L218.7 -30.7Q218.4 -30.7 217.4 -30.6Q216.4 -30.5 215.2 -30.2L215.2 -30.2Q214 -30 213 -29.9Q212 -29.7 211.8 -29.7L211.8 -29.7Q210.3 -29.5 208.7 -29.3Q207 -29.2 205.1 -28.9L205.1 -28.9Q201.2 -28.6 197.4 -28Q193.5 -27.5 189.9 -26.7L189.9 -26.7Q188.1 -26.4 186.5 -25.9Q184.9 -25.5 183.6 -24.9L183.6 -24.9L184.4 -24.7L184.7 -24.7Q184.8 -24.6 185.5 -24.4Q186.1 -24.2 186.8 -24L186.8 -24Q187.6 -23.9 188.2 -23.7Q188.8 -23.5 189 -23.4L189 -23.4L191.5 -23Q193.1 -22.6 194 -21.9L194 -21.9L201.3 -21.9Q205 -21.9 208.1 -21.9Q211.2 -22 214.9 -22.1L214.9 -22.1Q215.6 -22.3 216 -23Q216.4 -23.6 216.8 -24.3L216.8 -24.3Q217.2 -25 217.6 -25.5Q218 -26 218.7 -26L218.7 -26L219 -26Q219.4 -25.8 220.8 -25.2Q222.1 -24.6 223.6 -23.9L223.6 -23.9Q225 -23.1 226.3 -22.5Q227.6 -21.9 228 -21.6L228 -21.6Q228.5 -21.3 229.1 -21Q229.8 -20.7 230.3 -20.2Q230.8 -19.8 231.2 -19.3Q231.6 -18.8 231.6 -18.1L231.6 -18.1Q231.6 -17.4 231.1 -17.2Q230.6 -17 230 -16.9L230 -16.9Q229.5 -16.8 228.9 -16.6Q228.4 -16.3 228.3 -15.8L228.3 -15.8Q228 -11.4 227.9 -6.9Q227.8 -2.4 227.8 1.8L227.8 1.8Q227.2 2.6 225.8 3.2Q224.5 3.7 222.8 4.1L222.8 4.1Q221.2 4.5 219.7 4.7Q218.3 4.9 217.7 4.9L217.7 4.9L216.3 4.9L216 4.6Q215.9 4 215.7 3.4Q215.6 2.8 215.7 2.2L215.7 2.2Q215.8 1.5 215.8 0.9Q215.8 0.2 215.8 -0.4L215.8 -0.4L200.5 -0.4Q199.9 -0.4 198.9 -0.3Q197.9 -0.3 197.1 -0.2L197.1 -0.2L194.8 -0.1L194.8 2.4Q194.8 2.9 193.3 3.3L193.3 3.3Q191.8 3.9 189.9 4.3Q188 4.8 186.1 5L186.1 5Q185.3 5.2 184.7 5.3Q184.2 5.4 183.9 5.4L183.9 5.4L182.8 5.4Q182.2 5.2 182.2 4.4L182.2 4.4L182.2 3.3Q182.2 1.2 182.3 -1Q182.3 -3.2 182.4 -5.4L182.4 -5.4Q182.4 -7.7 182.5 -9.9Q182.5 -12.1 182.5 -14.3L182.5 -14.3L182.5 -24.4Q182.3 -24.8 181.8 -25.2L181.8 -25.2L180.9 -26Q179.5 -27.6 178.5 -30Q177.5 -32.3 176.9 -34.3L176.9 -34.3L176.9 -34.6Q176.9 -34.9 177.8 -35.5L177.8 -35.5Q178.8 -35.9 180.1 -36.2Q181.3 -36.6 182.4 -36.9L182.4 -36.9Q183.5 -37.2 183.9 -37.4L183.9 -37.4Q186.1 -38.8 188.2 -40.8Q190.2 -42.8 192 -45.1L192 -45.1Q193.8 -47.4 195.2 -49.9Q196.6 -52.4 197.6 -54.8L197.6 -54.8M194.8 -15.6L194.8 -5L202 -5Q202.2 -5 202.5 -5Q202.8 -5 203.3 -5L203.3 -5Q203.7 -5 204.2 -5Q204.7 -5 205.3 -5.1L205.3 -5.1Q205.8 -5.1 206.4 -5.1Q206.9 -5.1 207.4 -5.2L207.4 -5.2L211.8 -5.2Q212.1 -5.2 212.8 -5.2Q213.4 -5.3 214 -5.3L214 -5.3L215.5 -5.4L215.8 -5.7Q215.8 -6.4 215.8 -7.1Q215.8 -7.8 215.9 -8.5L215.9 -8.5Q215.9 -9.6 216 -10.9Q216 -12.1 216 -13L216 -13L216 -17.1L215.9 -17.6Q215.8 -17.6 215.8 -17.9L215.8 -17.9L214.2 -17.9L212.3 -17.7Q211.8 -17.6 211.3 -17.6Q210.8 -17.6 210.5 -17.6L210.5 -17.6Q210 -17.6 209.7 -17.6Q209.4 -17.6 209.3 -17.6L209.3 -17.6Q207.8 -17.5 206.3 -17.5Q204.8 -17.4 203.3 -17.5L203.3 -17.5Q201.8 -17.6 200.3 -17.5Q198.8 -17.5 197.3 -17.4L197.3 -17.4Q197.1 -17.4 196.7 -17.3Q196.3 -17.3 196 -17.2L196 -17.2L195.1 -17.1L194.8 -15.6M254.8 -49.5Q254.9 -49.8 255.2 -50.5Q255.5 -51.3 255.8 -52.1L255.8 -52.1Q256 -52.4 256.1 -52.8Q256.2 -53.1 256.3 -53.5L256.3 -53.5L256.7 -54.6Q256.7 -54.6 256.8 -55.1L256.8 -55.1Q257 -55.5 257 -55.6L257 -55.6L257.5 -55.6L258 -55.4Q258.3 -55.4 258.6 -55.4L258.6 -55.4L260.4 -54.7Q261.3 -54.4 262.9 -53.9L262.9 -53.9Q263.5 -53.6 264.2 -53.4Q264.9 -53.1 265.5 -52.9L265.5 -52.9L267.2 -52.3Q268.2 -52.1 268.2 -51.3L268.2 -51.3Q268.2 -50.8 267.8 -50.5Q267.5 -50.2 267 -49.9L267 -49.9Q266.5 -49.6 266.2 -49.2Q265.8 -48.9 265.8 -48.5L265.8 -48.5L268.6 -48.6Q269.4 -48.7 270.1 -48.7Q270.9 -48.7 271.2 -48.7L271.2 -48.7Q272.1 -48.7 273.4 -49.1L273.4 -49.1Q274.5 -49.5 275.5 -49.5L275.5 -49.5Q276.1 -49.5 276.7 -49.1Q277.2 -48.6 277.7 -47.9L277.7 -47.9L278.6 -46.5Q279.1 -45.8 279.4 -45.5L279.4 -45.5Q279.9 -45.6 280.2 -46.1Q280.5 -46.5 280.7 -47L280.7 -47Q280.9 -47.3 280.9 -47.5Q281 -47.7 281.1 -48L281.1 -48Q281.2 -48.2 281.2 -48.4Q281.3 -48.6 281.4 -48.7L281.4 -48.7Q281.7 -49.2 282 -50L282 -50Q282.1 -50.4 282.2 -50.8Q282.4 -51.3 282.5 -51.7L282.5 -51.7L283.2 -53.4Q283.3 -53.8 283.4 -54Q283.5 -54.1 283.5 -54.3L283.5 -54.3Q283.5 -54.4 283.6 -54.9L283.6 -54.9Q283.7 -55.2 283.7 -55.3Q283.8 -55.4 283.8 -55.6L283.8 -55.6L284.3 -55.6Q285.1 -55.6 287 -55.2Q288.9 -54.9 290.7 -54.3L290.7 -54.3Q291.7 -54 292.5 -53.7Q293.3 -53.4 294.1 -53.1L294.1 -53.1Q295.6 -52.4 295.6 -51.8L295.6 -51.8Q295.6 -51.4 295.2 -51.1Q294.9 -50.8 294.6 -50.4L294.6 -50.4Q294 -50.1 293.6 -49.8Q293.2 -49.5 292.9 -49.5L292.9 -49.5L292.9 -49.2L296.4 -49.2L297.9 -49.4Q298.3 -49.5 298.7 -49.5Q299.1 -49.5 299.3 -49.5L299.3 -49.5Q299.9 -50.1 300.9 -51Q302 -52 302.8 -52.6L302.8 -52.6Q303 -52.6 303.7 -52.2Q304.3 -51.8 305.1 -51.2L305.1 -51.2Q305.7 -50.6 306.3 -50Q306.9 -49.5 307.1 -49.2L307.1 -49.2Q307.2 -49 307.6 -48.7L307.6 -48.7L309 -47Q309.3 -46.7 309.5 -46.4L309.5 -46.4L309.5 -45.9Q309.5 -45.7 309.4 -45.6Q309.3 -45.5 309 -45.5L309 -45.5Q304.6 -45.5 300.5 -45.3Q296.4 -45.1 292.1 -45L292.1 -45Q293 -44.8 294.1 -44.5Q295.2 -44.3 296.1 -43.8L296.1 -43.8Q297.1 -43.3 297.6 -42.6Q298.2 -41.8 298.2 -40.6L298.2 -40.6Q298.2 -39 296.5 -37.4L296.5 -37.4Q295.7 -36.7 294.8 -36.3Q294 -35.9 293.2 -35.9L293.2 -35.9Q292.2 -35.9 291.6 -36.3Q291.1 -36.8 290.9 -37.5L290.9 -37.5Q290.7 -37.9 290.7 -38.3Q290.7 -38.7 290.6 -39L290.6 -39Q290.4 -40.5 289.3 -42L289.3 -42Q288.8 -42.7 288 -43.1L288 -43.1Q288 -44.1 288.9 -44.4L288.9 -44.4L288.6 -44.4Q288.1 -44.4 287 -44Q286 -43.6 284.8 -43L284.8 -43Q283.5 -42.4 282.6 -41.8Q281.6 -41.1 281.4 -40.9L281.4 -40.9Q281.5 -40.7 281.7 -40.5Q282 -40.4 282.2 -40.2L282.2 -40.2Q283.4 -39.7 284.2 -39.1L284.2 -39.1Q284.6 -38.7 284.6 -38.1L284.6 -38.1Q284.6 -37.9 284.3 -37.4Q284 -36.9 283.7 -36.5L283.7 -36.5Q283.3 -36.1 283 -35.6Q282.6 -35.2 282.4 -35.1L282.4 -35.1L292.6 -35.1Q292.8 -35.1 293.2 -35.1L293.2 -35.1Q293.5 -35.1 293.7 -35.1Q293.9 -35.1 294.3 -35.2L294.3 -35.2Q294.6 -35.3 294.8 -35.3Q295.1 -35.3 295.3 -35.3L295.3 -35.3L296.5 -35.3Q296.6 -35.1 297.1 -35.6L297.1 -35.6Q297.3 -35.9 297.6 -36.1L297.6 -36.1L298.9 -37.8Q299.1 -37.9 299.2 -38.1Q299.2 -38.2 299.3 -38.4L299.3 -38.4Q299.7 -38.8 299.8 -39L299.8 -39Q299.9 -39.2 300.4 -39.2L300.4 -39.2Q300.7 -39.2 301 -38.9L301 -38.9Q301.3 -38.6 301.8 -38.4L301.8 -38.4L304 -36.6L305.4 -35.4L306.3 -34.8L307.1 -34.1L309.5 -31.8Q309.8 -31.5 310.3 -31.1Q310.8 -30.7 310.8 -30.5L310.8 -30.5Q310.8 -29.6 310.8 -29.4L310.8 -29.4Q310.6 -29.1 310.5 -29.1Q310.3 -29 310 -29L310 -29Q309.5 -29 309.2 -28.8L309.2 -28.8Q306.1 -28.8 303 -28.2Q300 -27.6 297.4 -26L297.4 -26L297.4 -25.7Q297.6 -25.4 297.8 -25.2Q298 -25 298.2 -24.8L298.2 -24.8Q298.5 -24.3 298.5 -23.7L298.5 -23.7Q298.3 -23.7 297.8 -23.4Q297.4 -23.1 297.1 -22.9L297.1 -22.9Q297.1 -21.5 297.1 -19.8Q297.1 -18.1 296.9 -16.6L296.9 -16.6Q296.7 -16.2 296.2 -15.9Q295.7 -15.7 295.1 -15.5L295.1 -15.5Q294.5 -15.3 293.9 -15.2Q293.4 -15.1 293.2 -15.1L293.2 -15.1L293.2 -14.8Q293.5 -14.6 293.7 -14.5Q293.9 -14.5 294.1 -14.3L294.1 -14.3L294.5 -14Q294.8 -13.9 295.8 -13.5Q296.8 -13 297.9 -12.5L297.9 -12.5Q298.4 -12.1 298.9 -11.9Q299.4 -11.7 299.8 -11.4L299.8 -11.4Q300.8 -10.9 301.2 -10.7Q301.6 -10.4 302.3 -9.9L302.3 -9.9Q303 -9.5 303 -8.7L303 -8.7Q303 -8.3 302.7 -7.9Q302.3 -7.6 301.8 -7.3L301.8 -7.3Q301.2 -6.9 300.8 -6.7Q300.4 -6.4 300.4 -6.2L300.4 -6.2L300.4 2.3Q300.4 2.8 299 3.4L299 3.4Q297.6 3.9 295.8 4.3Q294.1 4.7 292.5 4.9L292.5 4.9Q290.8 5.1 290.2 5.1L290.2 5.1Q289.4 5.1 289.2 4.6Q289 4.2 288.9 3.6L288.9 3.6Q288.8 3.2 288.8 3Q288.7 2.7 288.8 2.3L288.8 2.3Q288.9 1.9 288.9 1.7Q288.9 1.5 288.9 1.3L288.9 1.3L288.6 1L287.6 1Q285.1 1 282.7 1Q280.3 1.1 278 1.2L278 1.2Q275.7 1.2 273.3 1.3Q270.9 1.3 268.5 1.3L268.5 1.3Q268.1 2.7 266.8 3.5Q265.6 4.2 264 4.6L264 4.6Q262.4 5 260.7 5Q259 5.1 257.8 5.1L257.8 5.1Q257.3 5.1 257 4.9L257 4.9L257 2.3Q257 0.1 257 -2.2Q257 -4.5 257.1 -6.8L257.1 -6.8Q257.2 -9.1 257.2 -11.4Q257.3 -13.8 257.3 -16.1L257.3 -16.1L257.3 -26Q256.6 -24.3 255.7 -22.8Q254.7 -21.2 252.7 -20.7L252.7 -20.7Q251.9 -21.1 250.9 -22.3Q249.9 -23.5 248.9 -25L248.9 -25Q247.9 -26.4 247.2 -27.8Q246.5 -29.2 246.5 -30.2L246.5 -30.2Q248.2 -31.1 249.4 -31.9Q250.6 -32.6 251.8 -33.4L251.8 -33.4Q252.4 -33.8 252.8 -34.2Q253.3 -34.5 253.5 -34.8L253.5 -34.8L253.9 -35.6Q254.3 -36.1 254.7 -36.7Q255 -37.3 255.4 -37.9L255.4 -37.9Q255.7 -38.4 255.7 -38.6L255.7 -38.6L255.7 -38.9Q254.6 -38.5 253.6 -37.8Q252.6 -37 251.6 -36.2L251.6 -36.2Q250.6 -35.4 249.5 -34.9Q248.4 -34.3 247.1 -34.3L247.1 -34.3L246.3 -34.3Q246 -34.3 246 -34.8L246 -34.8Q246 -35.1 246.3 -35.5Q246.5 -35.9 246.9 -36.3L246.9 -36.3L247.5 -36.9Q247.8 -37.2 247.8 -37.4L247.8 -37.4L248.5 -38.3Q248.9 -39 249.4 -39.6Q249.9 -40.3 250.3 -40.9L250.3 -40.9L250.8 -41.7Q250.8 -41.8 251 -42Q251.1 -42.3 251.4 -42.6L251.4 -42.6Q251.6 -43 251.9 -43.4Q252.1 -43.8 252.4 -44.4L252.4 -44.4Q252.6 -44.8 252.9 -45.3Q253.1 -45.7 253.3 -46.2L253.3 -46.2Q253.8 -46.9 254 -47.5L254 -47.5Q254 -47.7 254.4 -48.4L254.4 -48.4Q254.6 -48.7 254.7 -48.9Q254.8 -49.1 254.8 -49.2L254.8 -49.2L254.8 -49.5M268.3 -5.6Q268.3 -5 268.2 -4.4Q268.2 -3.9 268.2 -3.7L268.2 -3.7L268.2 -3.2Q268.2 -2.7 268.5 -2.7L268.5 -2.7L275.8 -2.7Q279.2 -2.7 282.2 -2.7Q285.2 -2.7 288.9 -2.9L288.9 -2.9L288.9 -7.7L274.1 -7.7Q273.5 -7.6 273 -7.6Q272.5 -7.6 271.9 -7.6L271.9 -7.6Q271.4 -7.6 270.9 -7.6Q270.4 -7.6 269.9 -7.6L269.9 -7.6Q269.4 -7.5 269 -7.5Q268.7 -7.5 268.5 -7.5L268.5 -7.5L268.3 -5.6M258.6 -30Q258.8 -29.8 259.7 -29.6Q260.5 -29.4 260.7 -29.4L260.7 -29.4Q261.7 -29.3 262.6 -29.1Q263.4 -28.9 264.2 -28.7L264.2 -28.7Q265.5 -28.1 267.7 -27.5L267.7 -27.5L271.9 -27.5Q273.6 -27.5 275.3 -27.5Q277 -27.4 278.9 -27.4L278.9 -27.4Q282.4 -27.3 285.6 -28L285.6 -28Q286.2 -28.1 286.6 -28.5Q286.9 -28.9 287.3 -29.4L287.3 -29.4Q287.6 -29.8 287.9 -30.2Q288.2 -30.5 288.9 -30.5L288.9 -30.5L289.4 -30.5L294.8 -27.7Q295.3 -28.6 295.6 -29.4L295.6 -29.4Q295.6 -30.2 296.1 -31.3L296.1 -31.3L295.3 -31.3Q285.9 -31.3 276.8 -31.1Q267.8 -30.8 258.6 -30.2L258.6 -30.2L258.6 -30M268.5 -11.5Q273.8 -11.5 278.9 -11.6Q284 -11.7 289.4 -12L289.4 -12Q290 -12.4 290.4 -13.1Q290.7 -13.8 291 -14.3L291 -14.3L290.7 -14.3Q290.3 -14.3 289.9 -14.3Q289.5 -14.3 289.2 -14.2L289.2 -14.2Q288.7 -14.1 288.3 -14.1Q287.9 -14 287.6 -14L287.6 -14Q286.7 -14 286.4 -14.5Q286.1 -15 285.9 -15.8L285.9 -15.8L282.7 -15.8Q279 -15.8 275.5 -15.7Q272 -15.7 268.5 -15.3L268.5 -15.3L268.5 -11.5M268.8 -23.5Q268.6 -23 268.5 -22.5Q268.4 -22 268.4 -21.4L268.4 -21.4Q268.4 -20.7 268.5 -20.3L268.5 -20.3L268.5 -19.7Q272 -19.7 275.5 -19.7Q279 -19.7 282.7 -19.9L282.7 -19.9Q283 -19.9 283.5 -19.9Q284 -19.9 284.6 -20L284.6 -20L285.9 -20.2L286.2 -20.4L286.2 -23.5L285.9 -23.7L279.1 -23.7Q277.5 -23.7 275.8 -23.7Q274.2 -23.6 272.4 -23.5L272.4 -23.5Q271.6 -23.5 270.7 -23.5Q269.8 -23.5 268.8 -23.5L268.8 -23.5M256.2 -39.2Q257.2 -39 257.7 -38.5Q258.2 -38.1 258.4 -37.5L258.4 -37.5Q258.5 -37.2 258.5 -36.9Q258.6 -36.6 258.5 -36.2L258.5 -36.2L258.3 -34.6Q258.6 -34.3 259.1 -34.3L259.1 -34.3Q260.1 -34.3 260.9 -34.4Q261.8 -34.4 262.7 -34.5L262.7 -34.5Q263.4 -34.6 264.3 -34.6Q265.2 -34.6 266.1 -34.6L266.1 -34.6Q265.9 -34.8 265.7 -35Q265.5 -35.2 265.2 -35.4L265.2 -35.4Q264.9 -35.6 264.5 -36.4L264.5 -36.4Q264 -37.4 263.6 -38.8L263.6 -38.8Q263.4 -39.5 263.3 -40.1Q263.1 -40.8 262.9 -41.4L262.9 -41.4Q262.6 -42 262.2 -42.6L262.2 -42.6Q261.9 -42.8 261.8 -43.1Q261.7 -43.3 261.6 -43.7L261.6 -43.7Q260.2 -42.8 258.9 -41.5L258.9 -41.5L256.2 -39.4L256.2 -39.2M266.9 -44.2L267.9 -43.8Q268.3 -43.7 268.7 -43.6Q269.1 -43.6 269.4 -43.4L269.4 -43.4Q271.2 -42.8 271.9 -42.7L271.9 -42.7L272.5 -42.7Q272.7 -42.7 273.4 -42.5Q274 -42.3 274.8 -42.2L274.8 -42.2Q275.6 -42 276.2 -41.8Q276.8 -41.7 277.1 -41.7L277.1 -41.7L277.3 -41.7Q277.7 -41.7 278.1 -42.1Q278.4 -42.5 278.7 -43.1L278.7 -43.1Q279 -43.6 279.1 -44Q279.2 -44.5 279.2 -44.7L279.2 -44.7L270.1 -44.7Q269.9 -44.7 269.4 -44.7Q268.8 -44.6 268.3 -44.6L268.3 -44.6L266.3 -44.4L266.9 -44.2M274.7 -34.8Q274.7 -35.1 274.3 -35.7Q274 -36.4 273.4 -37.2L273.4 -37.2Q273 -37.8 272.4 -38.4L272.4 -38.4Q272.1 -38.6 272 -38.7Q271.9 -38.9 271.7 -38.9L271.7 -38.9Q270.9 -37.7 269.9 -36.6Q268.9 -35.6 267.7 -34.8L267.7 -34.8L274.7 -34.8M352 -49.8Q355.7 -49.8 359.4 -49.9Q363 -50.1 366.7 -50.3L366.7 -50.3L367 -50.3Q367.5 -50.5 367.8 -51.1L367.8 -51.1Q368.2 -51.7 368.6 -52.3Q368.9 -52.9 369.3 -53.4L369.3 -53.4Q369.7 -53.8 370.5 -53.8L370.5 -53.8Q371.1 -53.8 372.5 -53L372.5 -53Q374 -52.2 375.6 -51.1Q377.3 -50 378.6 -48.8L378.6 -48.8Q379.8 -47.6 379.8 -47L379.8 -47Q379.8 -46.4 379.4 -46.2Q379.1 -45.9 378.5 -45.7L378.5 -45.7Q378 -45.4 377.6 -45.1Q377.1 -44.8 377.1 -44.2L377.1 -44.2L377.1 -21.7Q377.1 -20.9 376 -20.4Q374.8 -19.9 373.4 -19.7L373.4 -19.7Q371.9 -19.4 370.5 -19.3Q369.1 -19.2 368.6 -19.2L368.6 -19.2Q368.1 -19.1 367.7 -19.1Q367.3 -19.2 367.3 -19.4L367.3 -19.4L367.3 -22.5L366.7 -22.7L365.1 -22.7Q364.9 -22.7 364.8 -22.5L364.8 -22.5Q364.6 -22.5 364.6 -22.5L364.6 -22.5L364.6 -14.3L368.1 -14.3L368.8 -15L369.6 -15.9Q370.7 -16.9 371.2 -17.4L371.2 -17.4L372.1 -17.9L372.1 -18.1Q372.7 -18.1 374 -17.1Q375.3 -16.1 376.5 -14.8L376.5 -14.8L378.5 -12.2Q379.4 -10.9 379.4 -10.5L379.4 -10.5Q379.4 -10.2 378.9 -10Q378.5 -9.9 377.9 -9.9L377.9 -9.9Q377.7 -9.9 377.5 -9.9Q377.2 -9.9 376.9 -10L376.9 -10L376.4 -10.1Q375 -10.1 373 -10Q371.1 -10 369.2 -9.9L369.2 -9.9L364.6 -9.8L364.3 -9.6L364.3 -2.2Q365.5 -2 366.3 -2Q367.1 -1.9 368.4 -1.9L368.4 -1.9Q369.1 -1.9 370 -2Q370.8 -2 371.8 -2.2L371.8 -2.2Q372.4 -2.3 372.9 -2.8Q373.4 -3.3 373.8 -3.9L373.8 -3.9Q374.3 -4.5 374.8 -5Q375.3 -5.5 376.1 -5.5L376.1 -5.5Q376.6 -5.5 377.8 -4.4L377.8 -4.4Q378.9 -3.4 380.1 -2.1Q381.2 -0.7 382 0.4L382 0.4Q382.8 1.7 382.8 1.8L382.8 1.8L382.2 2.3Q376.8 2.2 371.6 2.2Q366.3 2.3 360.9 2.4L360.9 2.4Q355.5 2.6 350.1 2.7Q344.8 2.8 339.4 2.8L339.4 2.8L337.5 2.8Q337.5 2.7 337.4 2.6Q337.3 2.4 337.2 2.2L337.2 2.2L336.2 0.4L336 -0.1L335.4 -0.9L335.4 -1.2L335.7 -1.4Q339.6 -1.4 343.2 -1.5Q346.8 -1.5 350.6 -1.7L350.6 -1.7Q350.9 -1.7 351.5 -1.8Q352 -1.8 352.4 -1.8L352.4 -1.8L353.6 -1.9L353.9 -2.2L353.9 -9.3L343.9 -9.3Q343.7 -9.7 343.4 -10.2Q343.2 -10.7 342.7 -11.2L342.7 -11.2Q341.9 -12 341.9 -13.1L341.9 -13.1Q341.9 -13.5 342.1 -13.5L342.1 -13.5Q342.7 -13.5 344.2 -13.6Q345.7 -13.6 347.5 -13.7L347.5 -13.7L352.8 -13.8L353.9 -13.8L353.9 -22.2L353.3 -22.3Q352.9 -22.4 352.7 -22.4Q352.4 -22.5 352.2 -22.5L352.2 -22.5L352 -22.5Q351.9 -21 350.8 -20.1Q349.8 -19.3 348.3 -18.9L348.3 -18.9Q347.6 -18.7 346.9 -18.6Q346.1 -18.6 345.3 -18.5L345.3 -18.5Q344.5 -18.4 343.8 -18.4Q343.1 -18.3 342.4 -18.1L342.4 -18.1Q341.9 -18.6 341.9 -18.9L341.9 -18.9L341.9 -21.4Q341.9 -23.8 341.9 -26.2Q341.9 -28.6 341.9 -31L341.9 -31Q342 -33.5 342 -35.9Q342.1 -38.2 342.1 -40.7L342.1 -40.7L342.1 -44.7L341.9 -45Q341.4 -44.9 339.9 -44.7L339.9 -44.7L335.1 -44.5Q334.1 -44.4 334.1 -44.2L334.1 -44.2L334.1 -39.2Q334.1 -39 334.1 -38.6Q334.1 -38.3 334.2 -37.8L334.2 -37.8Q334.2 -37.3 334.2 -36.8Q334.2 -36.3 334.2 -35.7L334.2 -35.7Q334.2 -35.1 334.2 -34.6Q334.2 -34.1 334.3 -33.6L334.3 -33.6L334.3 -32.3Q334.5 -32.4 334.8 -32.6Q335 -32.8 335.4 -33L335.4 -33Q336.1 -33.6 336.5 -33.6L336.5 -33.6Q336.9 -33.6 337.6 -32.9Q338.3 -32.3 339.1 -31.5L339.1 -31.5Q339.9 -30.7 340.5 -29.8Q341 -28.9 341 -28.5L341 -28.5Q341 -28 340.7 -28L340.7 -28L339.3 -27.9Q338.7 -27.8 338.3 -27.8Q338 -27.7 337.8 -27.7L337.8 -27.7L335.4 -27.7Q335.2 -27.7 335.1 -27.7Q334.9 -27.7 334.7 -27.6L334.7 -27.6L334.1 -27.5L334.1 -16.3L334.3 -14.8Q335.7 -14.8 337.6 -15.4L337.6 -15.4Q339.1 -15.8 340.7 -15.8L340.7 -15.8Q341.4 -15.8 341.7 -15.6Q342.1 -15.4 342.1 -14.6L342.1 -14.6Q342.1 -14.3 341.1 -13.8L341.1 -13.8Q340.9 -13.6 340.7 -13.5Q340.6 -13.5 340.4 -13.4L340.4 -13.4L339.9 -13.1Q339.3 -12.7 338.2 -12.1Q337.2 -11.4 336.2 -10.7L336.2 -10.7Q335.6 -10.3 335.1 -10Q334.6 -9.6 334.2 -9.4L334.2 -9.4Q333.3 -8.8 333.3 -8.8L333.3 -8.8L332.5 -8.2L331.1 -7.1L329.6 -6Q328.8 -5.4 328.3 -4.9Q327.8 -4.5 327.1 -3.7L327.1 -3.7Q326.3 -2.9 325.5 -2.2Q324.6 -1.4 323.8 -0.9L323.8 -0.9Q323 -0.4 322 -0.4L322 -0.4Q321.2 -0.4 320.3 -1.8Q319.5 -3.2 318.7 -5L318.7 -5Q317.9 -6.9 317.4 -8.7Q316.9 -10.4 316.9 -11L316.9 -11Q316.9 -11.6 317.4 -11.9Q317.9 -12.2 318.5 -12.3L318.5 -12.3Q318.8 -12.4 319.5 -12.5Q320.1 -12.7 320.9 -12.8L320.9 -12.8L323.3 -13.3L323.6 -13.5Q323.6 -15.3 323.6 -17Q323.6 -18.7 323.7 -20.4L323.7 -20.4Q323.8 -22.1 323.8 -23.8Q323.9 -25.6 323.9 -27.2L323.9 -27.2L319.6 -27.2Q319.6 -27.2 319.5 -27.4L319.5 -27.4Q319.3 -27.5 319.3 -27.7L319.3 -27.7L319 -28.5Q318.9 -29 318.5 -29.7L318.5 -29.7Q318.2 -30.2 318 -30.8Q317.7 -31.4 317.7 -31.6L317.7 -31.6Q318.2 -32 318.8 -32L318.8 -32Q318.9 -32 319.1 -32Q319.4 -32 319.8 -32L319.8 -32Q320.1 -31.9 320.3 -31.9Q320.5 -31.8 320.6 -31.8L320.6 -31.8L323.6 -31.8L323.9 -32L323.9 -44.5Q323.4 -44.5 322.9 -44.5Q322.5 -44.4 322 -44.4L322 -44.4Q321.6 -44.3 321.1 -44.2Q320.6 -44.2 320.1 -44.2L320.1 -44.2Q319.9 -44.2 319.7 -44.3Q319.5 -44.4 319.3 -44.7L319.3 -44.7L318.3 -46.5L317.7 -47.8L317.7 -48.7L325.5 -48.7Q327.5 -48.7 329.4 -48.8Q331.3 -49 333.3 -49.2L333.3 -49.2Q333.3 -49.5 333.7 -49.9Q334.1 -50.3 334.5 -50.6L334.5 -50.6Q335.4 -51.5 336 -51.8L336 -51.8L336.5 -52.1Q337 -52.1 337.8 -51.3Q338.6 -50.5 339.5 -49.5L339.5 -49.5L341.1 -47.4L342.1 -46.2L342.1 -53.4Q342.1 -53.6 342.6 -53.6L342.6 -53.6L342.9 -53.6L343.4 -53.5L343.9 -53.4L351.4 -49.8L352 -49.8M352.5 -38.1Q352.7 -38.1 353.1 -38.1Q353.4 -38.2 353.7 -38.2L353.7 -38.2L354.7 -38.4L354.7 -45.5Q354.4 -45.5 354.1 -45.5Q353.7 -45.5 353.4 -45.6L353.4 -45.6Q352.6 -45.6 352 -45.2L352 -45.2L351.7 -45L351.7 -38.4Q351.7 -38.1 352.2 -38.1L352.2 -38.1L352.5 -38.1M364.3 -38.7L367.3 -38.7L367.3 -45.7Q367.3 -45.9 367 -45.9L367 -45.9Q366.8 -45.9 366.7 -45.9L366.7 -45.9L366.2 -45.9Q366 -45.9 365.7 -45.9Q365.3 -45.9 365 -45.9L365 -45.9Q364.8 -45.8 364.6 -45.8Q364.5 -45.8 364.3 -45.7L364.3 -45.7L364.3 -38.7M364.6 -27L365.4 -27Q365.8 -26.9 366.2 -27Q366.5 -27 366.8 -27.1L366.8 -27.1Q367 -27.1 367 -27.2L367 -27.2L367.3 -34.1Q367.2 -34.2 367.1 -34.2L367.1 -34.2Q366.6 -34.3 366.7 -34.3L366.7 -34.3L364.6 -34.3L364.6 -27M351.7 -27.2L352 -26.5L354.1 -26.5Q354.1 -26.9 354.1 -27.8Q354.2 -28.6 354.2 -29.6L354.2 -29.6Q354.3 -30.5 354.3 -31.4Q354.4 -32.2 354.4 -32.5L354.4 -32.5L354.4 -34.1L352 -34.1L351.7 -27.2M399.4 -49.3Q402.8 -49.3 406 -49.4Q409.2 -49.5 412.6 -49.6L412.6 -49.6Q415.9 -49.8 419.2 -49.9Q422.5 -50 425.9 -50.1L425.9 -50.1Q428.9 -50.1 432.2 -50.1Q435.5 -50.1 438.4 -51L438.4 -51Q439 -51.3 439.4 -51.4Q439.8 -51.6 440.2 -51.8L440.2 -51.8Q440.9 -52.1 442.2 -52.1L442.2 -52.1Q443 -52.1 443.7 -51.7Q444.4 -51.3 445.1 -50.7L445.1 -50.7L446.3 -49.3L447.3 -48Q447.5 -47.8 447.7 -47.6Q448 -47.4 448.2 -47.1L448.2 -47.1Q448.3 -46.9 448.4 -46.8Q448.5 -46.7 448.6 -46.5L448.6 -46.5L448.6 -45.7Q447.8 -45.7 446.1 -45.7Q444.4 -45.6 442.4 -45.6L442.4 -45.6Q440.3 -45.6 438.5 -45.5Q436.8 -45.5 436 -45.5L436 -45.5Q434.8 -45.5 433.7 -45.5Q432.6 -45.5 431.6 -45.6L431.6 -45.6Q430.6 -45.6 429.6 -45.5Q428.5 -45.4 427.5 -45.3L427.5 -45.3Q427.5 -42.8 427.4 -40.3Q427.4 -37.9 427.3 -35.5L427.3 -35.5Q427.2 -33.1 427.2 -30.7Q427.2 -28.3 427.2 -25.8L427.2 -25.8L427.2 -23.3Q428.4 -23 429.3 -23Q430.3 -23 431.5 -23L431.5 -23L436.6 -23Q439.1 -22.9 441.6 -23.5L441.6 -23.5Q442.3 -23.7 442.8 -24.3Q443.4 -24.9 444 -25.6L444 -25.6Q444.5 -26.3 444.9 -26.8Q445.3 -27.3 445.7 -27.3L445.7 -27.3Q446.3 -27.3 447.2 -26.7Q448.1 -26.1 448.6 -25.8L448.6 -25.8L449.2 -25.3Q449.4 -25.1 449.6 -24.9Q449.8 -24.7 449.9 -24.6L449.9 -24.6Q450.1 -24.3 450.3 -24.2Q450.5 -24 450.6 -23.9L450.6 -23.9Q451 -23.5 451.1 -23.5L451.1 -23.5Q451.3 -23.3 451.7 -22.8Q452.2 -22.2 452.7 -21.5L452.7 -21.5Q453.2 -20.8 453.7 -20.2Q454.1 -19.6 454.2 -19.4L454.2 -19.4L454.2 -19.2Q454.2 -18.6 453.6 -18.5Q453 -18.4 452.7 -18.4L452.7 -18.4Q452 -18.4 450.5 -18.4Q449.1 -18.4 447.4 -18.5L447.4 -18.5Q445.8 -18.6 444.3 -18.6Q442.8 -18.6 442.2 -18.6L442.2 -18.6L441.6 -18.6Q439.8 -18.6 438.1 -18.6Q436.3 -18.6 434.6 -18.5L434.6 -18.5Q432.9 -18.4 431.1 -18.4Q429.3 -18.4 427.5 -18.4L427.5 -18.4L427.5 2Q427.5 3 426.1 3.7Q424.8 4.3 422.9 4.8L422.9 4.8Q421.1 5.2 419.4 5.4Q417.7 5.5 417 5.5L417 5.5L415.4 5.5L415.2 5.3L415 4.3Q414.9 4 414.9 3.6Q414.9 3.2 414.9 2.8L414.9 2.8L414.9 1.7Q414.9 -0.8 414.9 -3.3Q414.9 -5.8 415 -8.3L415 -8.3Q415.1 -10.8 415.1 -13.3Q415.2 -15.8 415.2 -18.4L415.2 -18.4Q412.4 -18.4 409.7 -18.4Q406.9 -18.4 404.1 -18.5L404.1 -18.5Q398.6 -18.6 392.9 -17.7L392.9 -17.7L392.3 -18.2L390.9 -20.3Q390.7 -20.7 390.5 -21Q390.2 -21.2 390 -21.6L390 -21.6Q389.5 -22.2 389.4 -22.5L389.4 -22.5L390 -22.8L408.7 -22.8Q409.2 -22.8 410.1 -22.8Q411 -22.8 412.1 -22.9L412.1 -22.9Q413.1 -22.9 414.1 -22.9Q415 -23 415.4 -23L415.4 -23L415.4 -36.4Q415.4 -36.9 415.4 -38.1Q415.4 -39.4 415.3 -40.8L415.3 -40.8Q415.2 -42.3 415.2 -43.5Q415.2 -44.7 415.2 -45.3L415.2 -45.3L414.9 -45.3Q412.6 -45.3 410.5 -45.2Q408.3 -45.1 406.2 -45L406.2 -45Q402 -44.8 397.7 -44.8L397.7 -44.8Q397.6 -44.8 397 -44.9Q396.5 -44.9 396.6 -45.3L396.6 -45.3L396.3 -45.9L395.7 -46.8Q395.4 -47.2 395.1 -47.7Q394.8 -48.1 394.8 -48.2L394.8 -48.2L393.8 -49.3L393.8 -49.5Q394.4 -49.5 395.1 -49.5Q395.8 -49.5 396.6 -49.5L396.6 -49.5Q397.3 -49.4 398 -49.4Q398.7 -49.3 399.4 -49.3L399.4 -49.3M436 -44L436.3 -44.3Q436.6 -44.3 437.6 -43.8Q438.6 -43.3 440 -42.6Q441.3 -41.9 442.8 -41Q444.3 -40.2 445.6 -39.5Q446.8 -38.7 447.7 -38.2Q448.6 -37.7 448.6 -37.7L448.6 -37.7Q448.6 -37.1 448.3 -36.6L448.3 -36.6Q448.2 -36.3 448 -35.9Q447.8 -35.6 447.6 -35.5L447.6 -35.5L446.5 -35.2Q446 -35.2 445.5 -34.8L445.5 -34.8Q443.6 -33.6 441.8 -32.4Q440.1 -31.2 438.4 -30.1L438.4 -30.1Q436.7 -28.9 434.8 -27.8Q433 -26.6 431 -25.5L431 -25.5Q430.6 -25.3 430.4 -25.3Q430.3 -25.3 429.8 -25.3L429.8 -25.3Q429.5 -25.3 429.2 -25.3Q428.8 -25.4 428.8 -25.8L428.8 -25.8Q428.8 -26.6 429.2 -27.4Q429.5 -28.2 429.8 -28.8L429.8 -28.8L436 -44M397.2 -41.5Q397.4 -42 397.7 -42.4Q398 -42.7 398.8 -42.7L398.8 -42.7L399.1 -42.7Q399.5 -42.6 400.5 -42.2Q401.5 -41.8 402.6 -41.4L402.6 -41.4Q403.6 -41 404.6 -40.5Q405.6 -40.1 406.1 -39.9L406.1 -39.9L408.2 -38.9Q409.4 -38.3 410.5 -37.5Q411.7 -36.8 412.5 -35.8L412.5 -35.8Q413.3 -34.6 413.3 -33.3L413.3 -33.3Q413.3 -32.5 413 -31.5Q412.8 -30.4 412.2 -29.8L412.2 -29.8L407.7 -25.3Q407.2 -24.9 406.4 -24.6Q405.6 -24.2 405 -24.2L405 -24.2Q404.1 -24.2 403.7 -24.7Q403.2 -25.3 403.3 -26.1L403.3 -26.1Q402.3 -30.4 400.9 -34Q399.5 -37.6 397.2 -41.5L397.2 -41.5M485.6 -54.8Q485.7 -55 486.1 -55.3Q486.4 -55.6 486.6 -55.6L486.6 -55.6Q486.8 -55.6 488.1 -55.2L488.1 -55.2L493.7 -52.6Q495.3 -51.8 496.6 -50.9Q498 -50.1 498.8 -49.4L498.8 -49.4Q499.8 -48.7 499.8 -48.2L499.8 -48.2Q499.8 -48 499.2 -47.4L499.2 -47.4Q494.9 -44.5 490.6 -41.7Q486.4 -38.8 482 -36.1L482 -36.1L482 -35.8L505.1 -35.8L505.1 -36.4Q504.5 -36.9 504.2 -37.6L504.2 -37.6Q503.4 -38.7 502.8 -39.7Q502.1 -40.6 501.4 -41.4L501.4 -41.4Q501 -41.8 500.7 -42.3Q500.3 -42.7 500 -43.1L500 -43.1Q500.4 -43.7 500.7 -43.8Q501 -43.9 501.6 -43.9L501.6 -43.9Q503.2 -43.9 505.2 -43.3L505.2 -43.3Q506.2 -42.9 506.9 -42.6Q507.7 -42.3 508.3 -42.2L508.3 -42.2Q509.5 -41.8 511.6 -41Q513.6 -40.2 515.7 -39.2L515.7 -39.2Q517.8 -38.2 519.5 -36.9Q521.3 -35.6 521.9 -34.3L521.9 -34.3Q522.1 -33.8 522.2 -33.1Q522.2 -32.4 522.2 -31.8L522.2 -31.8Q522.2 -30.4 521.6 -29.4Q521 -28.4 520.1 -27.4L520.1 -27.4L518.2 -25.7Q517.7 -25.3 517.3 -24.8Q517 -24.3 516.6 -23.7L516.6 -23.7L516.6 -23.4Q516.2 -23.4 515.6 -23.5Q515 -23.5 514.4 -23.7L514.4 -23.7Q513.8 -23.8 513.3 -24Q512.8 -24.3 512.6 -24.7L512.6 -24.7L509.1 -30.7Q509 -30.8 508.9 -30.8Q508.8 -30.8 508.8 -30.9L508.8 -30.9Q508.3 -31 508.3 -31L508.3 -31Q508.2 -31 507.5 -30.9L507.5 -30.9L507 -30.7L506.7 -30.7Q506.4 -30.7 505.4 -30.6Q504.4 -30.5 503.2 -30.2L503.2 -30.2Q502 -30 501 -29.9Q500 -29.7 499.8 -29.7L499.8 -29.7Q498.3 -29.5 496.7 -29.3Q495 -29.2 493.1 -28.9L493.1 -28.9Q489.2 -28.6 485.4 -28Q481.5 -27.5 477.9 -26.7L477.9 -26.7Q476.1 -26.4 474.5 -25.9Q472.9 -25.5 471.6 -24.9L471.6 -24.9L472.4 -24.7L472.7 -24.7Q472.8 -24.6 473.5 -24.4Q474.1 -24.2 474.8 -24L474.8 -24Q475.6 -23.9 476.2 -23.7Q476.8 -23.5 477 -23.4L477 -23.4L479.5 -23Q481.1 -22.6 482 -21.9L482 -21.9L489.3 -21.9Q493 -21.9 496.1 -21.9Q499.2 -22 502.9 -22.1L502.9 -22.1Q503.6 -22.3 504 -23Q504.4 -23.6 504.8 -24.3L504.8 -24.3Q505.2 -25 505.6 -25.5Q506 -26 506.7 -26L506.7 -26L507 -26Q507.4 -25.8 508.8 -25.2Q510.1 -24.6 511.6 -23.9L511.6 -23.9Q513 -23.1 514.3 -22.5Q515.6 -21.9 516 -21.6L516 -21.6Q516.5 -21.3 517.1 -21Q517.8 -20.7 518.3 -20.2Q518.8 -19.8 519.2 -19.3Q519.6 -18.8 519.6 -18.1L519.6 -18.1Q519.6 -17.4 519.1 -17.2Q518.6 -17 518 -16.9L518 -16.9Q517.5 -16.8 516.9 -16.6Q516.4 -16.3 516.3 -15.8L516.3 -15.8Q516 -11.4 515.9 -6.9Q515.8 -2.4 515.8 1.8L515.8 1.8Q515.2 2.6 513.8 3.2Q512.5 3.7 510.8 4.1L510.8 4.1Q509.2 4.5 507.7 4.7Q506.3 4.9 505.7 4.9L505.7 4.9L504.3 4.9L504 4.6Q503.9 4 503.7 3.4Q503.6 2.8 503.7 2.2L503.7 2.2Q503.8 1.5 503.8 0.9Q503.8 0.2 503.8 -0.4L503.8 -0.4L488.5 -0.4Q487.9 -0.4 486.9 -0.3Q485.9 -0.3 485.1 -0.2L485.1 -0.2L482.8 -0.1L482.8 2.4Q482.8 2.9 481.3 3.3L481.3 3.3Q479.8 3.9 477.9 4.3Q476 4.8 474.1 5L474.1 5Q473.3 5.2 472.7 5.3Q472.2 5.4 471.9 5.4L471.9 5.4L470.8 5.4Q470.2 5.2 470.2 4.4L470.2 4.4L470.2 3.3Q470.2 1.2 470.3 -1Q470.3 -3.2 470.4 -5.4L470.4 -5.4Q470.4 -7.7 470.5 -9.9Q470.5 -12.1 470.5 -14.3L470.5 -14.3L470.5 -24.4Q470.3 -24.8 469.8 -25.2L469.8 -25.2L468.9 -26Q467.5 -27.6 466.5 -30Q465.5 -32.3 464.9 -34.3L464.9 -34.3L464.9 -34.6Q464.9 -34.9 465.8 -35.5L465.8 -35.5Q466.8 -35.9 468.1 -36.2Q469.3 -36.6 470.4 -36.9L470.4 -36.9Q471.5 -37.2 471.9 -37.4L471.9 -37.4Q474.1 -38.8 476.2 -40.8Q478.2 -42.8 480 -45.1L480 -45.1Q481.8 -47.4 483.2 -49.9Q484.6 -52.4 485.6 -54.8L485.6 -54.8M482.8 -15.6L482.8 -5L490 -5Q490.2 -5 490.5 -5Q490.8 -5 491.3 -5L491.3 -5Q491.7 -5 492.2 -5Q492.7 -5 493.3 -5.1L493.3 -5.1Q493.8 -5.1 494.4 -5.1Q494.9 -5.1 495.4 -5.2L495.4 -5.2L499.8 -5.2Q500.1 -5.2 500.8 -5.2Q501.4 -5.3 502 -5.3L502 -5.3L503.5 -5.4L503.8 -5.7Q503.8 -6.4 503.8 -7.1Q503.8 -7.8 503.9 -8.5L503.9 -8.5Q503.9 -9.6 504 -10.9Q504 -12.1 504 -13L504 -13L504 -17.1L503.9 -17.6Q503.8 -17.6 503.8 -17.9L503.8 -17.9L502.2 -17.9L500.3 -17.7Q499.8 -17.6 499.3 -17.6Q498.8 -17.6 498.5 -17.6L498.5 -17.6Q498 -17.6 497.7 -17.6Q497.4 -17.6 497.3 -17.6L497.3 -17.6Q495.8 -17.5 494.3 -17.5Q492.8 -17.4 491.3 -17.5L491.3 -17.5Q489.8 -17.6 488.3 -17.5Q486.8 -17.5 485.3 -17.4L485.3 -17.4Q485.1 -17.4 484.7 -17.3Q484.3 -17.3 484 -17.2L484 -17.2L483.1 -17.1L482.8 -15.6z" style="stroke-width: 0;" fill="#000000" id="masknamepathdata" stroke="#000000" paint-order="stroke" transform="matrix(1,0,0,1,0,0)"/><path d="M219.18750000000003 20.9L219.18750000000003 28.400000000000002Q219.18750000000003 29.2 218.98750000000004 29.8Q218.68750000000003 30.5 218.18750000000003 30.900000000000002Q217.78750000000002 31.3 217.18750000000003 31.6Q216.58750000000003 31.8 215.88750000000005 31.8L215.88750000000005 31.8L205.68750000000003 31.8L205.68750000000003 20.9L219.18750000000003 20.9M208.18750000000003 22.4L208.18750000000003 30.2L213.68750000000003 30.2L213.68750000000003 22.4L208.18750000000003 22.4M226.48750000000004 30.3L233.08750000000003 30.3L233.08750000000003 31.8L221.48750000000004 31.8L221.48750000000004 21L233.08750000000003 21L233.08750000000003 22.5L226.48750000000004 22.5L226.48750000000004 30.3M241.58750000000003 22.4L241.58750000000003 30.3L244.38750000000005 30.3L244.38750000000005 31.8L236.68750000000003 31.8L236.68750000000003 22.4L234.28750000000002 22.4L234.28750000000002 20.8L236.68750000000003 20.8L236.68750000000003 17L241.58750000000003 17L241.58750000000003 20.8L244.38750000000005 20.8L244.38750000000005 22.4L241.58750000000003 22.4M259.08750000000003 20.9L259.08750000000003 28.400000000000002Q259.08750000000003 29.2 258.7875 29.8Q258.4875 30.5 258.08750000000003 30.900000000000002Q257.58750000000003 31.3 256.9875 31.6Q256.38750000000005 31.8 255.68750000000003 31.8L255.68750000000003 31.8L245.58750000000003 31.8L245.58750000000003 20.9L259.08750000000003 20.9M247.98750000000004 22.4L247.98750000000004 30.2L253.48750000000004 30.2L253.48750000000004 22.4L247.98750000000004 22.4M274.38750000000005 21L269.6875 31.8L265.08750000000003 31.8L260.38750000000005 21L262.9875 21L266.18750000000006 28.2L269.38750000000005 21L274.38750000000005 21M278.1875 27.7L278.1875 30.3L289.6875 30.3L289.6875 31.8L275.6875 31.8L275.6875 21L289.6875 21L289.6875 25.200000000000003Q289.6875 26.5 288.98750000000007 27.1Q288.38750000000005 27.7 287.1875 27.7L287.1875 27.7L278.1875 27.7M278.1875 22.5L278.1875 26.200000000000003L284.6875 26.200000000000003L284.6875 22.5L278.1875 22.5M304.7875 21L304.7875 28.5Q304.7875 30 303.6875 30.900000000000002Q302.58750000000003 31.8 300.6875 31.8L300.6875 31.8L291.88750000000005 31.8L291.88750000000005 25.1L299.7875 25.1L299.7875 22.6L291.88750000000005 22.6L291.88750000000005 21L304.7875 21M299.88750000000005 30.3L299.7875 26.6L294.48750000000007 26.6L294.48750000000007 30.3L299.88750000000005 30.3M320.58750000000003 21L320.58750000000003 31.8L315.58750000000003 31.8L315.58750000000003 31.2Q315.1875 31.5 314.7875 31.7Q314.2875 31.8 313.7875 31.8L313.7875 31.8L307.08750000000003 31.8L307.08750000000003 21L309.58750000000003 21L309.58750000000003 30.5L313.08750000000003 30.5Q313.7875 30.5 314.48750000000007 30.2Q315.1875 29.900000000000002 315.58750000000003 29.3L315.58750000000003 29.3L315.58750000000003 21L320.58750000000003 21z" style="stroke-width: 0;" fill="#000000" id="masksloganpathdata" stroke="#000000" paint-order="stroke" transform="matrix(1,0,0,1,0,0)"/></mask>
          </defs>
          
        </g>
        </svg>